<svg width="607" height="69" viewBox="0 0 607 69" fill="none" xmlns="http://www.w3.org/2000/svg">
<g filter="url(#filter0_d_8884_2721)">
<path d="M0.09375 64.48H64.0938V0.48H0.09375V64.48ZM126.219 31.9062C126.219 34.2812 125.635 36.2292 124.469 37.75C123.323 39.25 121.833 40.4479 120 41.3438L124.75 50.4375C125.208 51.2917 125.76 51.9583 126.406 52.4375C127.052 52.9167 127.625 53.4479 128.125 54.0312C128.625 54.5938 128.875 55.4479 128.875 56.5938C128.875 57.7812 128.531 58.6458 127.844 59.1875C127.156 59.7292 126.25 60 125.125 60H111.75C109.354 60 108.156 58.8646 108.156 56.5938C108.156 55.7188 108.49 54.8958 109.156 54.125C109.177 53.9167 109.219 53.7188 109.281 53.5312C109.344 53.3229 109.375 53.1146 109.375 52.9062C109.375 52.6354 109.219 52.0833 108.906 51.25C108.594 50.4167 108.208 49.4792 107.75 48.4375C107.312 47.3958 106.885 46.4062 106.469 45.4688C106.219 45.4896 105.979 45.5 105.75 45.5C104.458 45.5 103.167 45.3542 101.875 45.0625V49.7812C101.875 50.3646 101.906 50.7604 101.969 50.9688C102.031 51.1771 102.25 51.5208 102.625 52C103.25 52.7708 103.802 53.4583 104.281 54.0625C104.76 54.6458 105 55.4896 105 56.5938C105 57.8021 104.656 58.6771 103.969 59.2188C103.302 59.7396 102.396 60 101.25 60H85.9375C84.8125 60 83.9062 59.7292 83.2188 59.1875C82.5521 58.6458 82.2188 57.7812 82.2188 56.5938C82.2188 55.5104 82.4271 54.7188 82.8438 54.2188C83.2812 53.6979 83.7812 53.2812 84.3438 52.9688C84.9271 52.6354 85.4271 52.25 85.8438 51.8125C86.2812 51.375 86.5 50.6979 86.5 49.7812V26.9688C86.5 26.0521 86.2812 25.375 85.8438 24.9375C85.4271 24.4792 84.9271 24.0938 84.3438 23.7812C83.7812 23.4479 83.2812 23.0312 82.8438 22.5312C82.4271 22.0104 82.2188 21.2188 82.2188 20.1562C82.2188 18.9688 82.5521 18.1042 83.2188 17.5625C83.9062 17.0208 84.8125 16.75 85.9375 16.75H103.344C105.26 16.75 107.271 16.8958 109.375 17.1875C111.5 17.4792 113.552 17.9688 115.531 18.6562C117.531 19.3229 119.333 20.2396 120.938 21.4062C122.562 22.5521 123.844 23.9896 124.781 25.7188C125.74 27.4479 126.219 29.5104 126.219 31.9062ZM101.875 23.0312V39.5938C102.333 39.6354 102.854 39.6562 103.438 39.6562C105.979 39.6562 107.802 38.9375 108.906 37.5C110.01 36.0417 110.562 34.125 110.562 31.75C110.562 29.3333 109.823 27.2812 108.344 25.5938C106.885 23.8854 104.906 23.0312 102.406 23.0312H101.875ZM161.562 39.3438C161.562 41.1979 161.01 42.6042 159.906 43.5625C158.823 44.5208 157.385 45 155.594 45H143C143.479 46.7917 144.333 48.3021 145.562 49.5312C146.792 50.7396 148.562 51.3438 150.875 51.3438C151.792 51.3438 152.698 51.1562 153.594 50.7812C154.51 50.3854 155.365 49.9271 156.156 49.4062C156.969 48.8854 157.677 48.4375 158.281 48.0625C158.885 47.6667 159.344 47.4688 159.656 47.4688C160.26 47.4688 160.698 47.6875 160.969 48.125C161.24 48.5417 161.375 49.0208 161.375 49.5625C161.375 51.4583 160.927 53.125 160.031 54.5625C159.156 55.9792 157.99 57.1562 156.531 58.0938C155.094 59.0312 153.51 59.7292 151.781 60.1875C150.073 60.6667 148.385 60.9062 146.719 60.9062C143.448 60.9062 140.562 60.2292 138.062 58.875C135.562 57.5208 133.604 55.625 132.188 53.1875C130.792 50.7292 130.094 47.8438 130.094 44.5312C130.094 40.9896 130.771 37.9062 132.125 35.2812C133.5 32.6562 135.469 30.625 138.031 29.1875C140.594 27.7292 143.667 27 147.25 27C149.729 27 152.052 27.4688 154.219 28.4062C156.406 29.3438 158.177 30.7292 159.531 32.5625C160.885 34.3958 161.562 36.6562 161.562 39.3438ZM142.438 40.1875C142.438 40.4167 142.438 40.6458 142.438 40.875H145.688C146.479 40.875 147.021 40.6979 147.312 40.3438C147.604 39.9688 147.75 39.4062 147.75 38.6562C147.75 38.1562 147.688 37.5 147.562 36.6875C147.438 35.875 147.188 35.1458 146.812 34.5C146.458 33.8542 145.938 33.5312 145.25 33.5312C144.625 33.5312 144.125 33.7917 143.75 34.3125C143.375 34.8125 143.094 35.4479 142.906 36.2188C142.719 36.9688 142.594 37.7083 142.531 38.4375C142.469 39.1667 142.438 39.75 142.438 40.1875ZM184.719 60.6562H180.125C178.729 60.6562 177.625 60.2708 176.812 59.5C176.021 58.7083 175.365 57.7083 174.844 56.5L166.25 36.75C166.042 36.2292 165.802 35.7292 165.531 35.25C165.26 34.7708 164.906 34.3438 164.469 33.9688C163.927 33.4896 163.427 33.0521 162.969 32.6562C162.531 32.2396 162.312 31.625 162.312 30.8125C162.312 29.8333 162.615 29.125 163.219 28.6875C163.844 28.2292 164.604 28 165.5 28H181.656C183.531 28 184.469 28.9167 184.469 30.75C184.469 31.4792 184.281 32.0625 183.906 32.5C183.552 32.9375 183.125 33.3021 182.625 33.5938C182.146 33.8646 181.719 34.1458 181.344 34.4375C180.99 34.7292 180.812 35.1042 180.812 35.5625C180.812 36.0208 180.917 36.5521 181.125 37.1562C181.354 37.7604 181.552 38.2708 181.719 38.6875L186.531 50.9062L191.406 38.7812L190.594 36.75C190.323 36.0625 190.031 35.4896 189.719 35.0312C189.406 34.5521 188.969 34.0729 188.406 33.5938C187.885 33.1354 187.521 32.7292 187.312 32.375C187.104 32 187 31.4583 187 30.75C187 28.9167 187.938 28 189.812 28H205.375C206.25 28 206.865 28.2708 207.219 28.8125C207.594 29.3542 207.781 30.0208 207.781 30.8125C207.781 31.5625 207.615 32.1458 207.281 32.5625C206.948 32.9583 206.562 33.2917 206.125 33.5625C205.688 33.8125 205.302 34.0729 204.969 34.3438C204.635 34.5938 204.469 34.9479 204.469 35.4062C204.469 35.9062 204.552 36.3854 204.719 36.8438C204.906 37.3021 205.083 37.7604 205.25 38.2188L209.969 51.0312L214.031 39.3438C214.198 38.8854 214.333 38.4271 214.438 37.9688C214.562 37.5104 214.625 37.0417 214.625 36.5625C214.625 35.8125 214.417 35.25 214 34.875C213.604 34.4792 213.135 34.1458 212.594 33.875C212.052 33.5833 211.573 33.2188 211.156 32.7812C210.76 32.3438 210.562 31.6875 210.562 30.8125C210.562 30.0208 210.771 29.3542 211.188 28.8125C211.604 28.2708 212.229 28 213.062 28H222.719C223.615 28 224.365 28.2292 224.969 28.6875C225.573 29.1458 225.875 29.8542 225.875 30.8125C225.875 31.5625 225.74 32.1042 225.469 32.4375C225.219 32.7708 224.823 33.1562 224.281 33.5938C223.323 34.3646 222.646 35.125 222.25 35.875C221.854 36.6042 221.438 37.5208 221 38.625L213.812 56.875C212.833 59.3958 211.052 60.6562 208.469 60.6562H203.906C202.531 60.6562 201.427 60.2604 200.594 59.4688C199.781 58.6771 199.135 57.6875 198.656 56.5L194.625 46.625L190.031 56.875C189.51 58.0208 188.823 58.9375 187.969 59.625C187.115 60.3125 186.031 60.6562 184.719 60.6562ZM225.781 52.8125C225.781 50.8958 226.229 49.3021 227.125 48.0312C228.021 46.7396 229.188 45.7083 230.625 44.9375C232.083 44.1458 233.656 43.5833 235.344 43.25C237.031 42.9167 238.656 42.75 240.219 42.75C240.677 42.75 241.146 42.7604 241.625 42.7812C242.104 42.7812 242.573 42.8229 243.031 42.9062V34.7812C243.031 34.2604 242.917 33.6562 242.688 32.9688C242.479 32.2812 242.042 31.9375 241.375 31.9375C240.729 31.9375 240.323 32.2083 240.156 32.75C240.01 33.2708 239.938 33.7708 239.938 34.25C239.938 34.4583 239.938 34.6771 239.938 34.9062C239.958 35.1146 239.969 35.3333 239.969 35.5625C239.969 37.7083 239.229 39.2188 237.75 40.0938C236.271 40.9479 234.583 41.375 232.688 41.375C231.104 41.375 229.729 41.0208 228.562 40.3125C227.396 39.6042 226.812 38.3542 226.812 36.5625C226.812 35.8542 226.948 35.1667 227.219 34.5C227.51 33.8333 227.875 33.2396 228.312 32.7188C229.583 31.1771 231.177 30 233.094 29.1875C235.031 28.375 237.062 27.8229 239.188 27.5312C241.333 27.2188 243.344 27.0625 245.219 27.0625C247.344 27.0625 249.292 27.3646 251.062 27.9688C252.833 28.5729 254.25 29.5833 255.312 31C256.375 32.3958 256.906 34.2812 256.906 36.6562V51.0625C256.906 51.4167 256.99 51.7292 257.156 52C257.323 52.2708 257.604 52.4062 258 52.4062C258.312 52.4062 258.573 52.3125 258.781 52.125C259.01 51.9167 259.281 51.8125 259.594 51.8125C260.198 51.8125 260.646 52.0208 260.938 52.4375C261.25 52.8542 261.406 53.3438 261.406 53.9062C261.406 55.3646 260.958 56.625 260.062 57.6875C259.188 58.7292 258.094 59.5208 256.781 60.0625C255.469 60.625 254.146 60.9062 252.812 60.9062C251.25 60.9062 249.667 60.5625 248.062 59.875C246.479 59.1875 245.385 58.1146 244.781 56.6562C243.719 58.1354 242.26 59.2188 240.406 59.9062C238.573 60.5729 236.771 60.9062 235 60.9062C233.375 60.9062 231.854 60.6042 230.438 60C229.042 59.375 227.917 58.4583 227.062 57.25C226.208 56.0417 225.781 54.5625 225.781 52.8125ZM239.875 50.0625C239.875 50.8958 240.073 51.6875 240.469 52.4375C240.865 53.1667 241.542 53.5312 242.5 53.5312C242.688 53.5312 242.865 53.5104 243.031 53.4688V47C242.677 46.8542 242.312 46.7812 241.938 46.7812C241.146 46.7812 240.604 47.1771 240.312 47.9688C240.021 48.7396 239.875 49.4375 239.875 50.0625ZM279.375 41.4688V50.5938C279.375 51.8021 279.51 52.6146 279.781 53.0312C280.073 53.4479 280.823 53.7812 282.031 54.0312C283.094 54.2396 283.938 54.4896 284.562 54.7812C285.208 55.0521 285.531 55.8438 285.531 57.1562C285.531 58.0938 285.25 58.8021 284.688 59.2812C284.125 59.7604 283.385 60 282.469 60H265.969C265.073 60 264.333 59.7604 263.75 59.2812C263.167 58.8021 262.875 58.0938 262.875 57.1562C262.875 56.4062 263.01 55.8438 263.281 55.4688C263.573 55.0938 263.896 54.7604 264.25 54.4688C264.625 54.1562 264.948 53.7604 265.219 53.2812C265.51 52.7812 265.656 52.0312 265.656 51.0312V39.6875C265.656 38.75 265.49 38.0521 265.156 37.5938C264.844 37.1146 264.479 36.7396 264.062 36.4688C263.667 36.1979 263.302 35.8958 262.969 35.5625C262.656 35.2083 262.5 34.6875 262.5 34C262.5 33.1875 262.76 32.5521 263.281 32.0938C263.823 31.6146 264.438 31.2396 265.125 30.9688L272.938 27.875C273.438 27.6667 273.948 27.4688 274.469 27.2812C274.99 27.0938 275.531 27 276.094 27C276.823 27 277.365 27.2812 277.719 27.8438C278.073 28.3854 278.312 29.0208 278.438 29.75C278.583 30.4583 278.688 31.0833 278.75 31.625C278.812 32 278.875 32.375 278.938 32.75C279 33.125 279.052 33.5 279.094 33.875C279.74 31.9583 280.729 30.3333 282.062 29C283.417 27.6667 285.281 27 287.656 27C289.344 27 290.667 27.4167 291.625 28.25C292.604 29.0833 293.302 30.1562 293.719 31.4688C294.135 32.7604 294.344 34.1354 294.344 35.5938C294.344 36.9479 294.167 38.2604 293.812 39.5312C293.458 40.7812 292.833 41.8125 291.938 42.625C291.062 43.4375 289.823 43.8438 288.219 43.8438C286.469 43.8438 285.188 43.5729 284.375 43.0312C283.583 42.4896 283.073 41.8229 282.844 41.0312C282.615 40.2396 282.49 39.4479 282.469 38.6562C282.469 37.8646 282.406 37.1979 282.281 36.6562C282.156 36.1146 281.781 35.8438 281.156 35.8438C280.594 35.8438 280.188 36.2396 279.938 37.0312C279.688 37.8021 279.531 38.6354 279.469 39.5312C279.406 40.4271 279.375 41.0729 279.375 41.4688ZM296.25 45.0312C296.25 41.8646 296.865 38.9167 298.094 36.1875C299.323 33.4375 301.115 31.2188 303.469 29.5312C305.823 27.8438 308.698 27 312.094 27C314.135 27 316 27.4375 317.688 28.3125V25.6562C317.688 24.7396 317.531 24.0521 317.219 23.5938C316.927 23.1354 316.583 22.7708 316.188 22.5C315.812 22.2083 315.469 21.8958 315.156 21.5625C314.865 21.2083 314.719 20.6875 314.719 20C314.719 19.1458 314.969 18.5 315.469 18.0625C315.99 17.6042 316.604 17.2396 317.312 16.9688L324.094 14.25C324.885 13.9167 325.698 13.625 326.531 13.375C327.365 13.125 328.219 13 329.094 13C329.948 13 330.594 13.3021 331.031 13.9062C331.49 14.4896 331.719 15.1771 331.719 15.9688V50.8125C331.719 51.8333 331.792 52.5417 331.938 52.9375C332.083 53.3333 332.51 53.9062 333.219 54.6562C333.635 55.0938 333.927 55.4688 334.094 55.7812C334.26 56.0729 334.344 56.5312 334.344 57.1562C334.344 58.0521 334.052 58.75 333.469 59.25C332.885 59.75 332.156 60 331.281 60H324.281C323.115 60 321.99 59.6458 320.906 58.9375C319.844 58.2083 319.094 57.2917 318.656 56.1875C317.385 57.5625 315.938 58.6979 314.312 59.5938C312.708 60.4688 310.906 60.9062 308.906 60.9062C306.781 60.9062 304.917 60.4479 303.312 59.5312C301.729 58.5938 300.417 57.3542 299.375 55.8125C298.333 54.25 297.552 52.5312 297.031 50.6562C296.51 48.7812 296.25 46.9062 296.25 45.0312ZM310.75 43.4688C310.75 44.2188 310.802 45.125 310.906 46.1875C311.031 47.2292 311.25 48.2604 311.562 49.2812C311.896 50.2812 312.375 51.125 313 51.8125C313.646 52.4792 314.479 52.8125 315.5 52.8125C316.292 52.8125 317.021 52.5417 317.688 52V35.3125C317.333 34.9583 316.938 34.6771 316.5 34.4688C316.062 34.2396 315.583 34.125 315.062 34.125C314.104 34.125 313.333 34.4792 312.75 35.1875C312.188 35.875 311.76 36.7396 311.469 37.7812C311.177 38.8021 310.979 39.8333 310.875 40.875C310.792 41.9167 310.75 42.7812 310.75 43.4688ZM352.031 32.3438C351.323 32.3438 350.688 32.5 350.125 32.8125C349.562 33.125 349.281 33.6875 349.281 34.5C349.281 35.1667 349.438 35.6771 349.75 36.0312C350.062 36.3854 350.51 36.6875 351.094 36.9375C351.719 37.2083 352.375 37.4062 353.062 37.5312C353.75 37.6562 354.417 37.7917 355.062 37.9375C356.979 38.3542 358.771 39.0625 360.438 40.0625C362.104 41.0417 363.448 42.3125 364.469 43.875C365.51 45.4167 366.031 47.25 366.031 49.375C366.031 52.2292 365.385 54.5 364.094 56.1875C362.802 57.875 361.083 59.0833 358.938 59.8125C356.812 60.5417 354.479 60.9062 351.938 60.9062C351.292 60.9062 350.396 60.8229 349.25 60.6562C348.125 60.4896 347.292 60.2604 346.75 59.9688H346.719C346.51 59.8646 346.167 59.75 345.688 59.625C345.208 59.5 344.854 59.4375 344.625 59.4375C343.979 59.4375 343.427 59.6875 342.969 60.1875C342.51 60.7083 341.948 60.9688 341.281 60.9688C340.385 60.9688 339.677 60.6771 339.156 60.0938C338.656 59.5104 338.271 58.8229 338 58.0312C337.75 57.2188 337.521 56.4688 337.312 55.7812C337.167 55.1979 337 54.625 336.812 54.0625C336.625 53.4792 336.531 52.8854 336.531 52.2812C336.531 51.1979 336.823 50.3229 337.406 49.6562C337.99 48.9896 338.833 48.6562 339.938 48.6562C341.021 48.6562 341.917 48.8958 342.625 49.375C343.333 49.8333 343.958 50.4062 344.5 51.0938C345.062 51.7812 345.625 52.4792 346.188 53.1875C346.771 53.875 347.469 54.4583 348.281 54.9375C349.094 55.3958 350.115 55.625 351.344 55.625C352.198 55.625 352.844 55.375 353.281 54.875C353.719 54.3542 353.938 53.6875 353.938 52.875C353.938 51.7083 353.625 50.9583 353 50.625C352.375 50.2917 351.573 50.0312 350.594 49.8438C348.802 49.4896 347.094 49.0729 345.469 48.5938C343.865 48.1146 342.438 47.4583 341.188 46.625C339.958 45.7917 338.979 44.6875 338.25 43.3125C337.542 41.9375 337.188 40.1667 337.188 38C337.188 35.4375 337.885 33.3542 339.281 31.75C340.677 30.125 342.448 28.9271 344.594 28.1562C346.76 27.3854 348.958 27 351.188 27C352.042 27 352.875 27.0312 353.688 27.0938C354.521 27.1562 355.344 27.3229 356.156 27.5938C356.26 27.6146 356.5 27.6979 356.875 27.8438C357.271 27.9896 357.656 28.1354 358.031 28.2812C358.406 28.4062 358.594 28.4688 358.594 28.4688C359.281 28.4688 359.865 28.2292 360.344 27.75C360.844 27.25 361.438 27 362.125 27C363 27 363.646 27.3438 364.062 28.0312C364.479 28.6979 364.771 29.4792 364.938 30.375C365.125 31.2708 365.271 32.0312 365.375 32.6562C365.458 33.1354 365.542 33.625 365.625 34.125C365.708 34.6042 365.75 35.0833 365.75 35.5625C365.75 36.3958 365.552 37.1875 365.156 37.9375C364.781 38.6667 364.104 39.0312 363.125 39.0312C362.146 39.0312 361.281 38.6979 360.531 38.0312C359.781 37.3438 359.031 36.5625 358.281 35.6875C357.531 34.8125 356.667 34.0417 355.688 33.375C354.708 32.6875 353.49 32.3438 352.031 32.3438ZM426.531 48.125C426.531 49.0417 426.365 49.9271 426.031 50.7812C425.719 51.6354 425.312 52.4375 424.812 53.1875C423.583 55.0625 422.021 56.5938 420.125 57.7812C418.25 58.9688 416.219 59.8438 414.031 60.4062C411.844 60.9688 409.667 61.25 407.5 61.25C402.917 61.25 398.917 60.2917 395.5 58.375C392.104 56.4375 389.469 53.7396 387.594 50.2812C385.719 46.8229 384.781 42.8229 384.781 38.2812C384.781 35.2188 385.323 32.3229 386.406 29.5938C387.49 26.8438 389.01 24.4062 390.969 22.2812C392.927 20.1562 395.229 18.4896 397.875 17.2812C400.542 16.0729 403.448 15.4688 406.594 15.4688C407.573 15.4688 408.552 15.5312 409.531 15.6562C410.51 15.7604 411.469 15.9583 412.406 16.25C412.99 16.4375 413.573 16.6458 414.156 16.875C414.74 17.1042 415.344 17.2188 415.969 17.2188C416.531 17.2188 417.031 17.0833 417.469 16.8125C417.927 16.5208 418.375 16.2396 418.812 15.9688C419.25 15.6979 419.719 15.5625 420.219 15.5625C421.281 15.5625 421.979 15.8958 422.312 16.5625C422.646 17.2292 422.927 17.9792 423.156 18.8125L425.969 28.5625C426.052 28.8333 426.094 29.1354 426.094 29.4688C426.094 30.4479 425.698 31.1875 424.906 31.6875C424.115 32.1667 423.281 32.4062 422.406 32.4062C421.385 32.4062 420.552 32.0521 419.906 31.3438C419.281 30.6354 418.698 29.7604 418.156 28.7188C417.615 27.6562 416.979 26.6042 416.25 25.5625C415.542 24.5208 414.604 23.6458 413.438 22.9375C412.292 22.2292 410.771 21.875 408.875 21.875C407.021 21.875 405.521 22.3646 404.375 23.3438C403.229 24.3021 402.354 25.5417 401.75 27.0625C401.146 28.5625 400.729 30.1562 400.5 31.8438C400.292 33.5312 400.188 35.0833 400.188 36.5C400.188 39.0417 400.562 41.4792 401.312 43.8125C402.062 46.1458 403.302 48.0625 405.031 49.5625C406.76 51.0417 409.094 51.7812 412.031 51.7812C413.594 51.7812 415.01 51.4688 416.281 50.8438C417.552 50.1979 418.698 49.4583 419.719 48.625C420.74 47.7708 421.625 47.0312 422.375 46.4062C423.146 45.7604 423.792 45.4375 424.312 45.4375C425.083 45.4375 425.646 45.7188 426 46.2812C426.354 46.8229 426.531 47.4375 426.531 48.125ZM461.375 39.3438C461.375 41.1979 460.823 42.6042 459.719 43.5625C458.635 44.5208 457.198 45 455.406 45H442.812C443.292 46.7917 444.146 48.3021 445.375 49.5312C446.604 50.7396 448.375 51.3438 450.688 51.3438C451.604 51.3438 452.51 51.1562 453.406 50.7812C454.323 50.3854 455.177 49.9271 455.969 49.4062C456.781 48.8854 457.49 48.4375 458.094 48.0625C458.698 47.6667 459.156 47.4688 459.469 47.4688C460.073 47.4688 460.51 47.6875 460.781 48.125C461.052 48.5417 461.188 49.0208 461.188 49.5625C461.188 51.4583 460.74 53.125 459.844 54.5625C458.969 55.9792 457.802 57.1562 456.344 58.0938C454.906 59.0312 453.323 59.7292 451.594 60.1875C449.885 60.6667 448.198 60.9062 446.531 60.9062C443.26 60.9062 440.375 60.2292 437.875 58.875C435.375 57.5208 433.417 55.625 432 53.1875C430.604 50.7292 429.906 47.8438 429.906 44.5312C429.906 40.9896 430.583 37.9062 431.938 35.2812C433.312 32.6562 435.281 30.625 437.844 29.1875C440.406 27.7292 443.479 27 447.062 27C449.542 27 451.865 27.4688 454.031 28.4062C456.219 29.3438 457.99 30.7292 459.344 32.5625C460.698 34.3958 461.375 36.6562 461.375 39.3438ZM442.25 40.1875C442.25 40.4167 442.25 40.6458 442.25 40.875H445.5C446.292 40.875 446.833 40.6979 447.125 40.3438C447.417 39.9688 447.562 39.4062 447.562 38.6562C447.562 38.1562 447.5 37.5 447.375 36.6875C447.25 35.875 447 35.1458 446.625 34.5C446.271 33.8542 445.75 33.5312 445.062 33.5312C444.438 33.5312 443.938 33.7917 443.562 34.3125C443.188 34.8125 442.906 35.4479 442.719 36.2188C442.531 36.9688 442.406 37.7083 442.344 38.4375C442.281 39.1667 442.25 39.75 442.25 40.1875ZM478.594 27C479.448 27 480.094 27.3021 480.531 27.9062C480.99 28.4896 481.219 29.1771 481.219 29.9688V32.8438C482.865 31.3229 484.677 29.9688 486.656 28.7812C488.635 27.5938 490.594 27 492.531 27C494.552 27 496.229 27.5 497.562 28.5C498.896 29.5 499.896 30.8021 500.562 32.4062C501.25 34.0104 501.594 35.7396 501.594 37.5938V50.5938C501.594 51.1771 501.615 51.75 501.656 52.3125C501.719 52.875 501.948 53.4062 502.344 53.9062C502.823 54.5104 503.24 54.9792 503.594 55.3125C503.969 55.6458 504.156 56.2604 504.156 57.1562C504.156 58.0729 503.875 58.7812 503.312 59.2812C502.75 59.7604 502.021 60 501.125 60H488.062C487.188 60 486.51 59.7396 486.031 59.2188C485.573 58.6979 485.344 58.0104 485.344 57.1562C485.344 56.3646 485.521 55.75 485.875 55.3125C486.25 54.8542 486.615 54.3854 486.969 53.9062C487.344 53.4062 487.531 52.7083 487.531 51.8125V40.9688C487.531 39.9896 487.333 39.0312 486.938 38.0938C486.562 37.1562 485.771 36.6875 484.562 36.6875C483.833 36.6875 483.208 36.8333 482.688 37.125C482.167 37.3958 481.677 37.75 481.219 38.1875V50.9688C481.219 51.5312 481.24 52.1042 481.281 52.6875C481.323 53.25 481.531 53.7708 481.906 54.25C482.344 54.7708 482.708 55.1979 483 55.5312C483.292 55.8438 483.438 56.3854 483.438 57.1562C483.438 58.0104 483.198 58.6979 482.719 59.2188C482.26 59.7396 481.594 60 480.719 60H467.656C466.76 60 466.031 59.7604 465.469 59.2812C464.906 58.7812 464.625 58.0729 464.625 57.1562C464.625 56.4688 464.75 55.9375 465 55.5625C465.271 55.1667 465.573 54.8021 465.906 54.4688C466.24 54.1354 466.531 53.7292 466.781 53.25C467.052 52.7708 467.188 52.1146 467.188 51.2812V39.6875C467.188 38.75 467.042 38.0417 466.75 37.5625C466.458 37.0833 466.115 36.7083 465.719 36.4375C465.323 36.1458 464.979 35.8333 464.688 35.5C464.396 35.1667 464.25 34.6667 464.25 34C464.25 33.1875 464.521 32.5521 465.062 32.0938C465.604 31.6146 466.208 31.2396 466.875 30.9688L473.625 28.25C474.417 27.9167 475.219 27.625 476.031 27.375C476.865 27.125 477.719 27 478.594 27ZM521.531 60.9062C517.969 60.9062 515.156 60.0833 513.094 58.4375C511.052 56.7708 510.031 54.0625 510.031 50.3125V36.7188C510.031 35.8229 509.833 35.1562 509.438 34.7188C509.042 34.2812 508.583 33.9271 508.062 33.6562C507.542 33.3646 507.083 33.0208 506.688 32.625C506.292 32.2083 506.094 31.5833 506.094 30.75C506.094 29.8958 506.396 29.2292 507 28.75C507.604 28.25 508.312 28 509.125 28H510.531C511.135 28 511.729 27.6979 512.312 27.0938C512.917 26.4688 513.521 25.6979 514.125 24.7812C514.75 23.8646 515.396 22.9583 516.062 22.0625C516.75 21.1458 517.479 20.3854 518.25 19.7812C519.021 19.1562 519.865 18.8438 520.781 18.8438C521.823 18.8438 522.635 19.1354 523.219 19.7188C523.802 20.3021 524.094 21.1146 524.094 22.1562V28H531.188C531.979 28 532.656 28.1875 533.219 28.5625C533.781 28.9375 534.062 29.5625 534.062 30.4375C534.062 31.6042 533.688 32.4896 532.938 33.0938C532.208 33.6979 531.323 34.1042 530.281 34.3125C529.24 34.5 528.26 34.5938 527.344 34.5938H524.094V46.9688C524.094 47.9896 524.292 48.9583 524.688 49.875C525.083 50.7708 525.896 51.2188 527.125 51.2188C527.938 51.2188 528.625 50.9896 529.188 50.5312C529.771 50.0521 530.312 49.5833 530.812 49.125C531.333 48.6667 531.885 48.4375 532.469 48.4375C533.01 48.4375 533.385 48.6979 533.594 49.2188C533.823 49.7396 533.938 50.2083 533.938 50.625C533.938 52.7292 533.302 54.5521 532.031 56.0938C530.76 57.6354 529.167 58.8229 527.25 59.6562C525.354 60.4896 523.448 60.9062 521.531 60.9062ZM567.438 39.3438C567.438 41.1979 566.885 42.6042 565.781 43.5625C564.698 44.5208 563.26 45 561.469 45H548.875C549.354 46.7917 550.208 48.3021 551.438 49.5312C552.667 50.7396 554.438 51.3438 556.75 51.3438C557.667 51.3438 558.573 51.1562 559.469 50.7812C560.385 50.3854 561.24 49.9271 562.031 49.4062C562.844 48.8854 563.552 48.4375 564.156 48.0625C564.76 47.6667 565.219 47.4688 565.531 47.4688C566.135 47.4688 566.573 47.6875 566.844 48.125C567.115 48.5417 567.25 49.0208 567.25 49.5625C567.25 51.4583 566.802 53.125 565.906 54.5625C565.031 55.9792 563.865 57.1562 562.406 58.0938C560.969 59.0312 559.385 59.7292 557.656 60.1875C555.948 60.6667 554.26 60.9062 552.594 60.9062C549.323 60.9062 546.438 60.2292 543.938 58.875C541.438 57.5208 539.479 55.625 538.062 53.1875C536.667 50.7292 535.969 47.8438 535.969 44.5312C535.969 40.9896 536.646 37.9062 538 35.2812C539.375 32.6562 541.344 30.625 543.906 29.1875C546.469 27.7292 549.542 27 553.125 27C555.604 27 557.927 27.4688 560.094 28.4062C562.281 29.3438 564.052 30.7292 565.406 32.5625C566.76 34.3958 567.438 36.6562 567.438 39.3438ZM548.312 40.1875C548.312 40.4167 548.312 40.6458 548.312 40.875H551.562C552.354 40.875 552.896 40.6979 553.188 40.3438C553.479 39.9688 553.625 39.4062 553.625 38.6562C553.625 38.1562 553.562 37.5 553.438 36.6875C553.312 35.875 553.062 35.1458 552.688 34.5C552.333 33.8542 551.812 33.5312 551.125 33.5312C550.5 33.5312 550 33.7917 549.625 34.3125C549.25 34.8125 548.969 35.4479 548.781 36.2188C548.594 36.9688 548.469 37.7083 548.406 38.4375C548.344 39.1667 548.312 39.75 548.312 40.1875ZM587.188 41.4688V50.5938C587.188 51.8021 587.323 52.6146 587.594 53.0312C587.885 53.4479 588.635 53.7812 589.844 54.0312C590.906 54.2396 591.75 54.4896 592.375 54.7812C593.021 55.0521 593.344 55.8438 593.344 57.1562C593.344 58.0938 593.062 58.8021 592.5 59.2812C591.938 59.7604 591.198 60 590.281 60H573.781C572.885 60 572.146 59.7604 571.562 59.2812C570.979 58.8021 570.688 58.0938 570.688 57.1562C570.688 56.4062 570.823 55.8438 571.094 55.4688C571.385 55.0938 571.708 54.7604 572.062 54.4688C572.438 54.1562 572.76 53.7604 573.031 53.2812C573.323 52.7812 573.469 52.0312 573.469 51.0312V39.6875C573.469 38.75 573.302 38.0521 572.969 37.5938C572.656 37.1146 572.292 36.7396 571.875 36.4688C571.479 36.1979 571.115 35.8958 570.781 35.5625C570.469 35.2083 570.312 34.6875 570.312 34C570.312 33.1875 570.573 32.5521 571.094 32.0938C571.635 31.6146 572.25 31.2396 572.938 30.9688L580.75 27.875C581.25 27.6667 581.76 27.4688 582.281 27.2812C582.802 27.0938 583.344 27 583.906 27C584.635 27 585.177 27.2812 585.531 27.8438C585.885 28.3854 586.125 29.0208 586.25 29.75C586.396 30.4583 586.5 31.0833 586.562 31.625C586.625 32 586.688 32.375 586.75 32.75C586.812 33.125 586.865 33.5 586.906 33.875C587.552 31.9583 588.542 30.3333 589.875 29C591.229 27.6667 593.094 27 595.469 27C597.156 27 598.479 27.4167 599.438 28.25C600.417 29.0833 601.115 30.1562 601.531 31.4688C601.948 32.7604 602.156 34.1354 602.156 35.5938C602.156 36.9479 601.979 38.2604 601.625 39.5312C601.271 40.7812 600.646 41.8125 599.75 42.625C598.875 43.4375 597.635 43.8438 596.031 43.8438C594.281 43.8438 593 43.5729 592.188 43.0312C591.396 42.4896 590.885 41.8229 590.656 41.0312C590.427 40.2396 590.302 39.4479 590.281 38.6562C590.281 37.8646 590.219 37.1979 590.094 36.6562C589.969 36.1146 589.594 35.8438 588.969 35.8438C588.406 35.8438 588 36.2396 587.75 37.0312C587.5 37.8021 587.344 38.6354 587.281 39.5312C587.219 40.4271 587.188 41.0729 587.188 41.4688Z" fill="url(#paint0_linear_8884_2721)"/>
</g>
<defs>
<filter id="filter0_d_8884_2721" x="0.09375" y="0.480469" width="606.062" height="68" filterUnits="userSpaceOnUse" color-interpolation-filters="sRGB">
<feFlood flood-opacity="0" result="BackgroundImageFix"/>
<feColorMatrix in="SourceAlpha" type="matrix" values="0 0 0 0 0 0 0 0 0 0 0 0 0 0 0 0 0 0 127 0" result="hardAlpha"/>
<feOffset dx="2" dy="2"/>
<feGaussianBlur stdDeviation="1"/>
<feComposite in2="hardAlpha" operator="out"/>
<feColorMatrix type="matrix" values="0 0 0 0 0.822115 0 0 0 0 1 0 0 0 0 1 0 0 0 1 0"/>
<feBlend mode="normal" in2="BackgroundImageFix" result="effect1_dropShadow_8884_2721"/>
<feBlend mode="normal" in="SourceGraphic" in2="effect1_dropShadow_8884_2721" result="shape"/>
</filter>
<linearGradient id="paint0_linear_8884_2721" x1="0" y1="38" x2="603" y2="38" gradientUnits="userSpaceOnUse">
<stop stop-color="#02FFFF"/>
<stop offset="0.495192" stop-color="#0088FF"/>
<stop offset="1" stop-color="#02FFFF"/>
</linearGradient>
</defs>
</svg>
