<svg width="228" height="52" viewBox="0 0 228 52" fill="none" xmlns="http://www.w3.org/2000/svg">
<g filter="url(#filter0_d_8899_3003)">
<path d="M52.5938 7.15625C52.5938 5.96875 52.9375 5.10417 53.625 4.5625C54.3125 4.02083 55.2188 3.75 56.3438 3.75H64.0312C65.1562 3.75 66.0521 4.02083 66.7188 4.5625C67.4062 5.10417 67.75 5.96875 67.75 7.15625C67.75 8.09375 67.5417 8.78125 67.125 9.21875C66.7083 9.63542 66.1458 10.0833 65.4375 10.5625C64.7083 11.0625 64.1562 11.5104 63.7812 11.9062C63.4062 12.3021 63.1146 12.75 62.9062 13.25C62.7188 13.7292 62.5 14.3854 62.25 15.2188L55.625 38.1562C55.0833 40.0312 54.8125 41.9271 54.8125 43.8438C54.8125 44.7188 54.5833 45.4688 54.125 46.0938C53.6667 46.6979 52.9688 47 52.0312 47H41.9688C41.0521 47 40.3646 46.6875 39.9062 46.0625C39.4479 45.4375 39.2188 44.6979 39.2188 43.8438C39.2188 43.1771 39.1562 42.5312 39.0312 41.9062C38.9062 41.2604 38.75 40.625 38.5625 40L34.0938 25.125L29.9062 38.1562C29.6771 38.8646 29.4896 39.5938 29.3438 40.3438C29.1979 41.0729 29.125 41.8125 29.125 42.5625C29.125 43.25 29.0729 43.9375 28.9688 44.625C28.8854 45.3125 28.6458 45.8854 28.25 46.3438C27.875 46.7812 27.2396 47 26.3438 47H16.25C15.3333 47 14.6458 46.6875 14.1875 46.0625C13.75 45.4167 13.5312 44.6771 13.5312 43.8438C13.5312 42.5729 13.3229 41.2917 12.9062 40L4.90625 14.5625C4.61458 13.6042 4.3125 12.9271 4 12.5312C3.70833 12.1354 3.16667 11.6354 2.375 11.0312C1.60417 10.4479 1.01042 9.91667 0.59375 9.4375C0.197917 8.9375 0 8.17708 0 7.15625C0 5.96875 0.34375 5.10417 1.03125 4.5625C1.71875 4.02083 2.625 3.75 3.75 3.75H19.5C20.6458 3.75 21.5521 4.02083 22.2188 4.5625C22.9062 5.08333 23.25 5.94792 23.25 7.15625C23.25 7.98958 23.0938 8.625 22.7812 9.0625C22.4896 9.47917 22.1458 9.83333 21.75 10.125C21.3542 10.4167 21 10.7604 20.6875 11.1562C20.3958 11.5521 20.25 12.1354 20.25 12.9062C20.25 13.3229 20.2917 13.7396 20.375 14.1562C20.4583 14.5521 20.5625 14.9583 20.6875 15.375L25.2188 30.4062L30.625 13.4688C30.4583 12.7812 30.2604 12.2188 30.0312 11.7812C29.8229 11.3438 29.3125 10.8229 28.5 10.2188C27.875 9.76042 27.4167 9.34375 27.125 8.96875C26.8542 8.57292 26.7188 7.96875 26.7188 7.15625C26.7188 5.98958 27.0625 5.13542 27.75 4.59375C28.4583 4.03125 29.3646 3.75 30.4688 3.75H45.0312C46.1562 3.75 47.0625 4.02083 47.75 4.5625C48.4375 5.10417 48.7812 5.96875 48.7812 7.15625C48.7812 7.96875 48.625 8.59375 48.3125 9.03125C48 9.46875 47.6354 9.84375 47.2188 10.1562C46.8021 10.4688 46.4375 10.8229 46.125 11.2188C45.8125 11.6146 45.6562 12.1875 45.6562 12.9375C45.6562 13.3333 45.6979 13.7396 45.7812 14.1562C45.8646 14.5729 45.9583 14.9792 46.0625 15.375L50.5 30.625L55.2812 14.25C55.3646 13.9792 55.4271 13.7083 55.4688 13.4375C55.5312 13.1667 55.5625 12.8958 55.5625 12.625C55.5625 11.8958 55.3125 11.3021 54.8125 10.8438C54.3333 10.3646 53.8438 9.86458 53.3438 9.34375C52.8438 8.80208 52.5938 8.07292 52.5938 7.15625ZM67.8125 39.8125C67.8125 37.8958 68.2604 36.3021 69.1562 35.0312C70.0521 33.7396 71.2188 32.7083 72.6562 31.9375C74.1146 31.1458 75.6875 30.5833 77.375 30.25C79.0625 29.9167 80.6875 29.75 82.25 29.75C82.7083 29.75 83.1771 29.7604 83.6562 29.7812C84.1354 29.7812 84.6042 29.8229 85.0625 29.9062V21.7812C85.0625 21.2604 84.9479 20.6562 84.7188 19.9688C84.5104 19.2812 84.0729 18.9375 83.4062 18.9375C82.7604 18.9375 82.3542 19.2083 82.1875 19.75C82.0417 20.2708 81.9688 20.7708 81.9688 21.25C81.9688 21.4583 81.9688 21.6771 81.9688 21.9062C81.9896 22.1146 82 22.3333 82 22.5625C82 24.7083 81.2604 26.2188 79.7812 27.0938C78.3021 27.9479 76.6146 28.375 74.7188 28.375C73.1354 28.375 71.7604 28.0208 70.5938 27.3125C69.4271 26.6042 68.8438 25.3542 68.8438 23.5625C68.8438 22.8542 68.9792 22.1667 69.25 21.5C69.5417 20.8333 69.9062 20.2396 70.3438 19.7188C71.6146 18.1771 73.2083 17 75.125 16.1875C77.0625 15.375 79.0938 14.8229 81.2188 14.5312C83.3646 14.2188 85.375 14.0625 87.25 14.0625C89.375 14.0625 91.3229 14.3646 93.0938 14.9688C94.8646 15.5729 96.2812 16.5833 97.3438 18C98.4062 19.3958 98.9375 21.2812 98.9375 23.6562V38.0625C98.9375 38.4167 99.0208 38.7292 99.1875 39C99.3542 39.2708 99.6354 39.4062 100.031 39.4062C100.344 39.4062 100.604 39.3125 100.812 39.125C101.042 38.9167 101.312 38.8125 101.625 38.8125C102.229 38.8125 102.677 39.0208 102.969 39.4375C103.281 39.8542 103.438 40.3438 103.438 40.9062C103.438 42.3646 102.99 43.625 102.094 44.6875C101.219 45.7292 100.125 46.5208 98.8125 47.0625C97.5 47.625 96.1771 47.9062 94.8438 47.9062C93.2812 47.9062 91.6979 47.5625 90.0938 46.875C88.5104 46.1875 87.4167 45.1146 86.8125 43.6562C85.75 45.1354 84.2917 46.2188 82.4375 46.9062C80.6042 47.5729 78.8021 47.9062 77.0312 47.9062C75.4062 47.9062 73.8854 47.6042 72.4688 47C71.0729 46.375 69.9479 45.4583 69.0938 44.25C68.2396 43.0417 67.8125 41.5625 67.8125 39.8125ZM81.9062 37.0625C81.9062 37.8958 82.1042 38.6875 82.5 39.4375C82.8958 40.1667 83.5729 40.5312 84.5312 40.5312C84.7188 40.5312 84.8958 40.5104 85.0625 40.4688V34C84.7083 33.8542 84.3438 33.7812 83.9688 33.7812C83.1771 33.7812 82.6354 34.1771 82.3438 34.9688C82.0521 35.7396 81.9062 36.4375 81.9062 37.0625ZM122.25 0C123.104 0 123.76 0.291667 124.219 0.875C124.698 1.45833 124.938 2.15625 124.938 2.96875V37.5938C124.938 38.1979 124.969 38.7917 125.031 39.375C125.094 39.9375 125.354 40.4479 125.812 40.9062C126.375 41.4688 126.854 41.9271 127.25 42.2812C127.667 42.6146 127.875 43.2396 127.875 44.1562C127.875 45.0938 127.583 45.8021 127 46.2812C126.417 46.7604 125.677 47 124.781 47H111.031C110.135 47 109.396 46.7604 108.812 46.2812C108.229 45.8021 107.938 45.0938 107.938 44.1562C107.938 43.3646 108.083 42.7917 108.375 42.4375C108.667 42.0625 109.01 41.7396 109.406 41.4688C109.802 41.1979 110.146 40.8229 110.438 40.3438C110.729 39.8438 110.875 39.0625 110.875 38V12.6562C110.875 11.6562 110.708 10.9271 110.375 10.4688C110.042 10.0104 109.646 9.66667 109.188 9.4375C108.75 9.1875 108.365 8.90625 108.031 8.59375C107.698 8.26042 107.531 7.72917 107.531 7C107.531 6.16667 107.802 5.52083 108.344 5.0625C108.885 4.60417 109.5 4.23958 110.188 3.96875L117.156 1.25C117.99 0.916667 118.823 0.625 119.656 0.375C120.49 0.125 121.354 0 122.25 0ZM148.625 0C149.479 0 150.135 0.291667 150.594 0.875C151.073 1.45833 151.312 2.15625 151.312 2.96875V37.5938C151.312 38.1979 151.344 38.7917 151.406 39.375C151.469 39.9375 151.729 40.4479 152.188 40.9062C152.75 41.4688 153.229 41.9271 153.625 42.2812C154.042 42.6146 154.25 43.2396 154.25 44.1562C154.25 45.0938 153.958 45.8021 153.375 46.2812C152.792 46.7604 152.052 47 151.156 47H137.406C136.51 47 135.771 46.7604 135.188 46.2812C134.604 45.8021 134.312 45.0938 134.312 44.1562C134.312 43.3646 134.458 42.7917 134.75 42.4375C135.042 42.0625 135.385 41.7396 135.781 41.4688C136.177 41.1979 136.521 40.8229 136.812 40.3438C137.104 39.8438 137.25 39.0625 137.25 38V12.6562C137.25 11.6562 137.083 10.9271 136.75 10.4688C136.417 10.0104 136.021 9.66667 135.562 9.4375C135.125 9.1875 134.74 8.90625 134.406 8.59375C134.073 8.26042 133.906 7.72917 133.906 7C133.906 6.16667 134.177 5.52083 134.719 5.0625C135.26 4.60417 135.875 4.23958 136.562 3.96875L143.531 1.25C144.365 0.916667 145.198 0.625 146.031 0.375C146.865 0.125 147.729 0 148.625 0ZM191.344 26.3438C191.344 28.1979 190.792 29.6042 189.688 30.5625C188.604 31.5208 187.167 32 185.375 32H172.781C173.26 33.7917 174.115 35.3021 175.344 36.5312C176.573 37.7396 178.344 38.3438 180.656 38.3438C181.573 38.3438 182.479 38.1562 183.375 37.7812C184.292 37.3854 185.146 36.9271 185.938 36.4062C186.75 35.8854 187.458 35.4375 188.062 35.0625C188.667 34.6667 189.125 34.4688 189.438 34.4688C190.042 34.4688 190.479 34.6875 190.75 35.125C191.021 35.5417 191.156 36.0208 191.156 36.5625C191.156 38.4583 190.708 40.125 189.812 41.5625C188.938 42.9792 187.771 44.1562 186.312 45.0938C184.875 46.0312 183.292 46.7292 181.562 47.1875C179.854 47.6667 178.167 47.9062 176.5 47.9062C173.229 47.9062 170.344 47.2292 167.844 45.875C165.344 44.5208 163.385 42.625 161.969 40.1875C160.573 37.7292 159.875 34.8438 159.875 31.5312C159.875 27.9896 160.552 24.9062 161.906 22.2812C163.281 19.6562 165.25 17.625 167.812 16.1875C170.375 14.7292 173.448 14 177.031 14C179.51 14 181.833 14.4688 184 15.4062C186.188 16.3438 187.958 17.7292 189.312 19.5625C190.667 21.3958 191.344 23.6562 191.344 26.3438ZM172.219 27.1875C172.219 27.4167 172.219 27.6458 172.219 27.875H175.469C176.26 27.875 176.802 27.6979 177.094 27.3438C177.385 26.9688 177.531 26.4062 177.531 25.6562C177.531 25.1562 177.469 24.5 177.344 23.6875C177.219 22.875 176.969 22.1458 176.594 21.5C176.24 20.8542 175.719 20.5312 175.031 20.5312C174.406 20.5312 173.906 20.7917 173.531 21.3125C173.156 21.8125 172.875 22.4479 172.688 23.2188C172.5 23.9688 172.375 24.7083 172.312 25.4375C172.25 26.1667 172.219 26.75 172.219 27.1875ZM211.125 47.9062C207.562 47.9062 204.75 47.0833 202.688 45.4375C200.646 43.7708 199.625 41.0625 199.625 37.3125V23.7188C199.625 22.8229 199.427 22.1562 199.031 21.7188C198.635 21.2812 198.177 20.9271 197.656 20.6562C197.135 20.3646 196.677 20.0208 196.281 19.625C195.885 19.2083 195.688 18.5833 195.688 17.75C195.688 16.8958 195.99 16.2292 196.594 15.75C197.198 15.25 197.906 15 198.719 15H200.125C200.729 15 201.323 14.6979 201.906 14.0938C202.51 13.4688 203.115 12.6979 203.719 11.7812C204.344 10.8646 204.99 9.95833 205.656 9.0625C206.344 8.14583 207.073 7.38542 207.844 6.78125C208.615 6.15625 209.458 5.84375 210.375 5.84375C211.417 5.84375 212.229 6.13542 212.812 6.71875C213.396 7.30208 213.688 8.11458 213.688 9.15625V15H220.781C221.573 15 222.25 15.1875 222.812 15.5625C223.375 15.9375 223.656 16.5625 223.656 17.4375C223.656 18.6042 223.281 19.4896 222.531 20.0938C221.802 20.6979 220.917 21.1042 219.875 21.3125C218.833 21.5 217.854 21.5938 216.938 21.5938H213.688V33.9688C213.688 34.9896 213.885 35.9583 214.281 36.875C214.677 37.7708 215.49 38.2188 216.719 38.2188C217.531 38.2188 218.219 37.9896 218.781 37.5312C219.365 37.0521 219.906 36.5833 220.406 36.125C220.927 35.6667 221.479 35.4375 222.062 35.4375C222.604 35.4375 222.979 35.6979 223.188 36.2188C223.417 36.7396 223.531 37.2083 223.531 37.625C223.531 39.7292 222.896 41.5521 221.625 43.0938C220.354 44.6354 218.76 45.8229 216.844 46.6562C214.948 47.4896 213.042 47.9062 211.125 47.9062Z" fill="url(#paint0_linear_8899_3003)"/>
</g>
<defs>
<filter id="filter0_d_8899_3003" x="0" y="0" width="227.656" height="51.9062" filterUnits="userSpaceOnUse" color-interpolation-filters="sRGB">
<feFlood flood-opacity="0" result="BackgroundImageFix"/>
<feColorMatrix in="SourceAlpha" type="matrix" values="0 0 0 0 0 0 0 0 0 0 0 0 0 0 0 0 0 0 127 0" result="hardAlpha"/>
<feOffset dx="2" dy="2"/>
<feGaussianBlur stdDeviation="1"/>
<feComposite in2="hardAlpha" operator="out"/>
<feColorMatrix type="matrix" values="0 0 0 0 0.822115 0 0 0 0 1 0 0 0 0 1 0 0 0 1 0"/>
<feBlend mode="normal" in2="BackgroundImageFix" result="effect1_dropShadow_8899_3003"/>
<feBlend mode="normal" in="SourceGraphic" in2="effect1_dropShadow_8899_3003" result="shape"/>
</filter>
<linearGradient id="paint0_linear_8899_3003" x1="0" y1="25" x2="225" y2="25" gradientUnits="userSpaceOnUse">
<stop stop-color="#02FFFF"/>
<stop offset="0.495192" stop-color="#0088FF"/>
<stop offset="1" stop-color="#02FFFF"/>
</linearGradient>
</defs>
</svg>
