<svg width="48" height="48" viewBox="0 0 48 48" fill="none" xmlns="http://www.w3.org/2000/svg">
<mask id="mask0_8324_699" style="mask-type:alpha" maskUnits="userSpaceOnUse" x="0" y="0" width="48" height="48">
<rect width="48" height="48" fill="#D9D9D9"/>
</mask>
<g mask="url(#mask0_8324_699)">
<path d="M10.1998 32.1C9.46647 30.8333 8.91647 29.5333 8.5498 28.2C8.18313 26.8667 7.9998 25.5 7.9998 24.1C7.9998 19.6333 9.5498 15.8333 12.6498 12.7C15.7498 9.56667 19.5331 8 23.9998 8H24.3498L21.1498 4.8L23.9498 2L31.9498 10L23.9498 18L21.1498 15.2L24.3498 12H23.9998C20.6665 12 17.8331 13.175 15.4998 15.525C13.1665 17.875 11.9998 20.7333 11.9998 24.1C11.9998 24.9667 12.0998 25.8167 12.2998 26.65C12.4998 27.4833 12.7998 28.3 13.1998 29.1L10.1998 32.1ZM24.0498 46L16.0498 38L24.0498 30L26.8498 32.8L23.6498 36H23.9998C27.3331 36 30.1665 34.825 32.4998 32.475C34.8331 30.125 35.9998 27.2667 35.9998 23.9C35.9998 23.0333 35.8998 22.1833 35.6998 21.35C35.4998 20.5167 35.1998 19.7 34.7998 18.9L37.7998 15.9C38.5331 17.1667 39.0831 18.4667 39.4498 19.8C39.8165 21.1333 39.9998 22.5 39.9998 23.9C39.9998 28.3667 38.4498 32.1667 35.3498 35.3C32.2498 38.4333 28.4665 40 23.9998 40H23.6498L26.8498 43.2L24.0498 46Z" fill="#02FFFF"/>
</g>
</svg>
