<svg width="30" height="30" viewBox="0 0 30 30" fill="none" xmlns="http://www.w3.org/2000/svg">
<path d="M18.85 3.4404H11.15C10.5025 3.40897 9.86868 3.63415 9.38614 4.06708C8.90359 4.50001 8.61124 5.10577 8.57251 5.7529V13.3491C8.59653 14.5986 8.96129 15.8179 9.62744 16.8752C10.2936 17.9326 11.2358 18.788 12.3525 19.3491C13.168 19.7817 14.077 20.0078 15 20.0078C15.9231 20.0078 16.8321 19.7817 17.6475 19.3491C18.7642 18.788 19.7064 17.9326 20.3726 16.8752C21.0387 15.8179 21.4035 14.5986 21.4275 13.3491V5.7529C21.3888 5.10577 21.0964 4.50001 20.6139 4.06708C20.1313 3.63415 19.4975 3.40897 18.85 3.4404Z" stroke="white" stroke-width="0.75" stroke-linecap="round"/>
<path d="M21.4275 5.75336H23.995C24.6406 5.72497 25.2715 5.95152 25.7516 6.38414C26.2317 6.81675 26.5225 7.42076 26.5612 8.06586C26.5576 9.51561 26.1832 10.9403 25.4737 12.2046C24.7311 13.5118 23.6941 14.628 22.445 15.4646L21.4275 16.1584L20.4337 16.7596M8.57247 5.75336H6.00497C5.35934 5.72497 4.72842 5.95152 4.24833 6.38414C3.76824 6.81675 3.47746 7.42076 3.43872 8.06586C3.44247 9.51586 3.81622 10.9409 4.52622 12.2046C5.2688 13.5118 6.30581 14.628 7.55497 15.4646L8.57247 16.1584L9.56622 16.7596M12.4337 23.0946V19.3834M17.5662 23.0946V19.3834M11.0125 23.0946H18.9875C19.308 23.0943 19.6254 23.1572 19.9216 23.2797C20.2178 23.4022 20.4869 23.5819 20.7135 23.8085C20.9402 24.0352 21.1199 24.3043 21.2424 24.6005C21.3649 24.8967 21.4278 25.2141 21.4275 25.5346V25.9509C21.4275 26.1133 21.3629 26.2691 21.2481 26.384C21.1332 26.4988 20.9774 26.5634 20.815 26.5634H9.18497C9.02253 26.5634 8.86673 26.4988 8.75187 26.384C8.637 26.2691 8.57247 26.1133 8.57247 25.9509V25.5346C8.57214 25.2142 8.63499 24.8969 8.75742 24.6008C8.87984 24.3047 9.05945 24.0356 9.28596 23.809C9.51246 23.5824 9.78143 23.4026 10.0775 23.28C10.3735 23.1575 10.6908 23.0944 11.0112 23.0946H11.0125Z" stroke="white" stroke-width="0.75" stroke-linecap="round"/>
<path d="M17.5 11.2559C17.5 9.87515 16.3807 8.75586 15 8.75586C13.6193 8.75586 12.5 9.87515 12.5 11.2559C12.5 12.6366 13.6193 13.7559 15 13.7559C16.3807 13.7559 17.5 12.6366 17.5 11.2559Z" stroke="white" stroke-width="0.75"/>
</svg>
