<svg width="31" height="30" viewBox="0 0 31 30" fill="none" xmlns="http://www.w3.org/2000/svg">
<mask id="mask0_8318_325" style="mask-type:alpha" maskUnits="userSpaceOnUse" x="0" y="0" width="31" height="30">
<rect x="0.5" width="30" height="30" fill="#D9D9D9"/>
</mask>
<g mask="url(#mask0_8318_325)">
<path d="M6.75 25H24.25V22.5H6.75V25ZM10.875 20H20.125L19.4062 15H11.5938L10.875 20ZM4.25 27.5V22.5C4.25 21.8125 4.49479 21.224 4.98438 20.7344C5.47396 20.2448 6.0625 20 6.75 20H8.375L9.0625 15H5.5V12.5H25.5V15H21.9375L22.625 20H24.25C24.9375 20 25.526 20.2448 26.0156 20.7344C26.5052 21.224 26.75 21.8125 26.75 22.5V27.5H4.25ZM8.96875 12.5L6.75 2.5C7.4375 3.02083 8.14583 3.51042 8.875 3.96875C9.60417 4.42708 10.4062 4.65625 11.2812 4.65625C12.1146 4.65625 12.8802 4.44271 13.5781 4.01562C14.276 3.58854 14.9167 3.08333 15.5 2.5C16.0833 3.08333 16.724 3.58854 17.4219 4.01562C18.1198 4.44271 18.8854 4.65625 19.7188 4.65625C20.5938 4.65625 21.3958 4.42708 22.125 3.96875C22.8542 3.51042 23.5625 3.02083 24.25 2.5L22.0312 12.5H19.4688L20.6875 7.09375L20.4531 7.125C20.2969 7.14583 20.0521 7.15625 19.7188 7.15625C18.9688 7.15625 18.2344 7.04167 17.5156 6.8125C16.7969 6.58333 16.125 6.26042 15.5 5.84375C14.8958 6.26042 14.2448 6.58333 13.5469 6.8125C12.849 7.04167 12.1354 7.15625 11.4062 7.15625C11.0312 7.15625 10.7552 7.14583 10.5781 7.125L10.3125 7.09375L11.5313 12.5H8.96875Z" fill="white"/>
</g>
</svg>
