<svg width="31" height="30" viewBox="0 0 31 30" fill="none" xmlns="http://www.w3.org/2000/svg">
<mask id="mask0_8319_619" style="mask-type:alpha" maskUnits="userSpaceOnUse" x="0" y="0" width="31" height="30">
<rect x="0.5" width="30" height="30" fill="#D9D9D9"/>
</mask>
<g mask="url(#mask0_8319_619)">
<path d="M15.5 15V2.5C15.5 2.14583 15.6198 1.84896 15.8594 1.60938C16.099 1.36979 16.3958 1.25 16.75 1.25C17.1042 1.25 17.401 1.36979 17.6406 1.60938C17.8802 1.84896 18 2.14583 18 2.5V15H15.5ZM10.5 15V3.75C10.5 3.39583 10.6198 3.09896 10.8594 2.85938C11.099 2.61979 11.3958 2.5 11.75 2.5C12.1042 2.5 12.401 2.61979 12.6406 2.85938C12.8802 3.09896 13 3.39583 13 3.75V15H10.5ZM16.125 28.75C13.1667 28.75 10.6562 27.7188 8.59375 25.6562C6.53125 23.5938 5.5 21.0833 5.5 18.125V6.25C5.5 5.89583 5.61979 5.59896 5.85938 5.35938C6.09896 5.11979 6.39583 5 6.75 5C7.10417 5 7.40104 5.11979 7.64062 5.35938C7.88021 5.59896 8 5.89583 8 6.25V18.125C8 20.3958 8.78646 22.3177 10.3594 23.8906C11.9323 25.4635 13.8542 26.25 16.125 26.25C18.3958 26.25 20.3177 25.4635 21.8906 23.8906C23.4635 22.3177 24.25 20.3958 24.25 18.125V13.75C23.8958 13.75 23.599 13.8698 23.3594 14.1094C23.1198 14.349 23 14.6458 23 15V20H19.25C18.5625 20 17.974 20.2448 17.4844 20.7344C16.9948 21.224 16.75 21.8125 16.75 22.5V23.75H14.25V22.5C14.25 21.125 14.7396 19.9479 15.7188 18.9688C16.6979 17.9896 17.875 17.5 19.25 17.5H20.5V5C20.5 4.64583 20.6198 4.34896 20.8594 4.10938C21.099 3.86979 21.3958 3.75 21.75 3.75C22.1042 3.75 22.401 3.86979 22.6406 4.10938C22.8802 4.34896 23 4.64583 23 5V11.4688C23.2083 11.4062 23.4115 11.3542 23.6094 11.3125C23.8073 11.2708 24.0208 11.25 24.25 11.25H26.75V18.125C26.75 21.0833 25.7188 23.5938 23.6562 25.6562C21.5938 27.7188 19.0833 28.75 16.125 28.75Z" fill="white"/>
</g>
</svg>
