<svg width="24" height="24" viewBox="0 0 24 24" fill="none" xmlns="http://www.w3.org/2000/svg">
<mask id="mask0_8318_413" style="mask-type:alpha" maskUnits="userSpaceOnUse" x="0" y="0" width="24" height="24">
<rect width="24" height="24" fill="#D9D9D9"/>
</mask>
<g mask="url(#mask0_8318_413)">
<path d="M6 12.8184C6 13.683 6.175 14.5019 6.525 15.275C6.875 16.0482 7.375 16.7257 8.025 17.3076C8.00833 17.2245 8 17.1497 8 17.0832V16.8587C8 16.3267 8.1 15.8279 8.3 15.3623C8.5 14.8968 8.79167 14.4728 9.175 14.0904L12 11.322L14.825 14.0904C15.2083 14.4728 15.5 14.8968 15.7 15.3623C15.9 15.8279 16 16.3267 16 16.8587V17.0832C16 17.1497 15.9917 17.2245 15.975 17.3076C16.625 16.7257 17.125 16.0482 17.475 15.275C17.825 14.5019 18 13.683 18 12.8184C18 11.9871 17.8458 11.2015 17.5375 10.4616C17.2292 9.72167 16.7833 9.06076 16.2 8.47882C15.8667 8.69497 15.5167 8.85708 15.15 8.96515C14.7833 9.07323 14.4083 9.12726 14.025 9.12726C12.9917 9.12726 12.0958 8.78641 11.3375 8.10471C10.5792 7.42302 10.1417 6.58336 10.025 5.58576C9.375 6.13444 8.8 6.70391 8.3 7.29416C7.8 7.88441 7.37917 8.48298 7.0375 9.08985C6.69583 9.69673 6.4375 10.3161 6.2625 10.9479C6.0875 11.5797 6 12.2032 6 12.8184ZM12 14.1153L10.575 15.512C10.3917 15.6948 10.25 15.9027 10.15 16.1355C10.05 16.3682 10 16.6093 10 16.8587C10 17.3908 10.1958 17.848 10.5875 18.2304C10.9792 18.6129 11.45 18.8041 12 18.8041C12.55 18.8041 13.0208 18.6129 13.4125 18.2304C13.8042 17.848 14 17.3908 14 16.8587C14 16.5927 13.95 16.3474 13.85 16.123C13.75 15.8985 13.6083 15.6948 13.425 15.512L12 14.1153ZM12 1.84473V5.13683C12 5.70214 12.1958 6.17601 12.5875 6.55842C12.9792 6.94084 13.4583 7.13205 14.025 7.13205C14.325 7.13205 14.6042 7.0697 14.8625 6.945C15.1208 6.8203 15.35 6.63324 15.55 6.38384L16 5.83516C17.2333 6.53348 18.2083 7.50615 18.925 8.75316C19.6417 10.0002 20 11.3553 20 12.8184C20 15.0464 19.225 16.9335 17.675 18.4798C16.125 20.0261 14.2333 20.7993 12 20.7993C9.76667 20.7993 7.875 20.0261 6.325 18.4798C4.775 16.9335 4 15.0464 4 12.8184C4 10.6736 4.72083 8.63677 6.1625 6.70806C7.60417 4.77936 9.55 3.15824 12 1.84473Z" fill="white"/>
</g>
</svg>
