<svg width="24" height="24" viewBox="0 0 24 24" fill="none" xmlns="http://www.w3.org/2000/svg">
<mask id="mask0_8318_407" style="mask-type:alpha" maskUnits="userSpaceOnUse" x="0" y="0" width="24" height="24">
<rect width="24" height="24" fill="#D9D9D9"/>
</mask>
<g mask="url(#mask0_8318_407)">
<path d="M3.39979 16.5689L1.99979 15.1723L7.29979 9.88498C7.88312 9.30304 8.59145 9.01207 9.42479 9.01207C10.2581 9.01207 10.9665 9.30304 11.5498 9.88498L12.6998 11.0322C12.8998 11.2317 13.1373 11.3315 13.4123 11.3315C13.6873 11.3315 13.9248 11.2317 14.1248 11.0322L18.5748 6.59287H15.9998V4.59766H21.9998V10.5833H19.9998V8.01446L15.5248 12.4538C14.9415 13.0358 14.2331 13.3267 13.3998 13.3267C12.5665 13.3267 11.8581 13.0358 11.2748 12.4538L10.0998 11.2816C9.91645 11.0987 9.68312 11.0073 9.39979 11.0073C9.11645 11.0073 8.88312 11.0987 8.69979 11.2816L3.39979 16.5689Z" fill="white"/>
</g>
</svg>
