<svg width="40" height="40" viewBox="0 0 40 40" fill="none" xmlns="http://www.w3.org/2000/svg">
<mask id="mask0_8318_357" style="mask-type:alpha" maskUnits="userSpaceOnUse" x="0" y="0" width="40" height="40">
<rect width="40" height="40" fill="#D9D9D9"/>
</mask>
<g mask="url(#mask0_8318_357)">
<path d="M19.9998 33.3335C22.0831 33.3335 23.854 32.6043 25.3123 31.146C26.7706 29.6877 27.4998 27.9168 27.4998 25.8335C27.4998 23.7502 26.7706 21.9793 25.3123 20.521C23.854 19.0627 22.0831 18.3335 19.9998 18.3335C17.9165 18.3335 16.1456 19.0627 14.6873 20.521C13.229 21.9793 12.4998 23.7502 12.4998 25.8335C12.4998 27.9168 13.229 29.6877 14.6873 31.146C16.1456 32.6043 17.9165 33.3335 19.9998 33.3335ZM15.1248 16.1668C15.6804 15.8613 16.2706 15.6182 16.8956 15.4377C17.5206 15.2571 18.1526 15.1391 18.7915 15.0835L14.5831 6.66683H10.4165L15.1248 16.1668ZM24.8748 16.1668L29.6248 6.66683H25.4165L21.8748 13.7502L22.6665 15.3335C23.0554 15.4446 23.4304 15.5627 23.7915 15.6877C24.1526 15.8127 24.5137 15.9724 24.8748 16.1668ZM10.6665 31.3335C10.1942 30.5279 9.82619 29.6599 9.5623 28.7293C9.29841 27.7988 9.16646 26.8335 9.16646 25.8335C9.16646 24.8335 9.29841 23.8682 9.5623 22.9377C9.82619 22.0071 10.1942 21.1391 10.6665 20.3335C9.4998 20.7224 8.54146 21.4099 7.79146 22.396C7.04146 23.3821 6.66646 24.5279 6.66646 25.8335C6.66646 27.1391 7.04146 28.2849 7.79146 29.271C8.54146 30.2571 9.4998 30.9446 10.6665 31.3335ZM29.3331 31.3335C30.4998 30.9446 31.4581 30.2571 32.2081 29.271C32.9581 28.2849 33.3331 27.1391 33.3331 25.8335C33.3331 24.5279 32.9581 23.3821 32.2081 22.396C31.4581 21.4099 30.4998 20.7224 29.3331 20.3335C29.8054 21.1391 30.1734 22.0071 30.4373 22.9377C30.7012 23.8682 30.8331 24.8335 30.8331 25.8335C30.8331 26.8335 30.7012 27.7988 30.4373 28.7293C30.1734 29.6599 29.8054 30.5279 29.3331 31.3335ZM19.9998 36.6668C18.8887 36.6668 17.8262 36.5071 16.8123 36.1877C15.7984 35.8682 14.8609 35.4307 13.9998 34.8752C13.7498 34.9307 13.4998 34.9654 13.2498 34.9793C12.9998 34.9932 12.7359 35.0002 12.4581 35.0002C9.93035 35.0002 7.77757 34.1113 5.9998 32.3335C4.22202 30.5557 3.33313 28.4029 3.33313 25.8752C3.33313 23.4585 4.13869 21.3891 5.7498 19.6668C7.36091 17.9446 9.34702 16.9863 11.7081 16.7918L4.9998 3.3335H16.6665L19.9998 10.0002L23.3331 3.3335H34.9998L28.3331 16.7085C30.6942 16.9307 32.6734 17.9029 34.2706 19.6252C35.8679 21.3474 36.6665 23.4168 36.6665 25.8335C36.6665 28.3891 35.7776 30.5557 33.9998 32.3335C32.222 34.1113 30.0554 35.0002 27.4998 35.0002C27.2498 35.0002 26.9929 34.9932 26.729 34.9793C26.4651 34.9654 26.2081 34.9307 25.9581 34.8752C25.097 35.4307 24.1665 35.8682 23.1665 36.1877C22.1665 36.5071 21.1109 36.6668 19.9998 36.6668ZM16.9165 30.4168L18.0831 26.6252L14.9998 24.4168H18.7915L19.9998 20.4168L21.2081 24.4168H24.9998L21.9165 26.6252L23.0831 30.4168L19.9998 28.0835L16.9165 30.4168Z" fill="white"/>
</g>
</svg>
