<svg width="36" height="36" viewBox="0 0 36 36" fill="none" xmlns="http://www.w3.org/2000/svg">
<mask id="mask0_8318_345" style="mask-type:alpha" maskUnits="userSpaceOnUse" x="0" y="0" width="36" height="36">
<rect width="36" height="36" fill="#D9D9D9"/>
</mask>
<g mask="url(#mask0_8318_345)">
<path d="M28.5751 32.4001L24.1876 28.0501L20.8876 31.3501L19.8376 30.3001C19.2626 29.7251 18.9751 29.0126 18.9751 28.1626C18.9751 27.3126 19.2626 26.6001 19.8376 26.0251L26.1751 19.6876C26.7501 19.1126 27.4626 18.8251 28.3126 18.8251C29.1626 18.8251 29.8751 19.1126 30.4501 19.6876L31.5001 20.7376L28.2001 24.0376L32.5501 28.4251C32.8501 28.7251 33.0001 29.0751 33.0001 29.4751C33.0001 29.8751 32.8501 30.2251 32.5501 30.5251L30.6751 32.4001C30.3751 32.7001 30.0251 32.8501 29.6251 32.8501C29.2251 32.8501 28.8751 32.7001 28.5751 32.4001ZM33.0001 8.8501L15.9751 25.8751L16.1626 26.0251C16.7376 26.6001 17.0251 27.3126 17.0251 28.1626C17.0251 29.0126 16.7376 29.7251 16.1626 30.3001L15.1126 31.3501L11.8126 28.0501L7.42512 32.4001C7.12512 32.7001 6.77512 32.8501 6.37512 32.8501C5.97512 32.8501 5.62512 32.7001 5.32512 32.4001L3.45012 30.5251C3.15012 30.2251 3.00012 29.8751 3.00012 29.4751C3.00012 29.0751 3.15012 28.7251 3.45012 28.4251L7.80012 24.0376L4.50012 20.7376L5.55012 19.6876C6.12512 19.1126 6.83762 18.8251 7.68762 18.8251C8.53762 18.8251 9.25012 19.1126 9.82512 19.6876L9.97512 19.8751L27.0001 2.8501H33.0001V8.8501ZM10.4251 16.2751L3.00012 8.8501V2.8501H9.00012L16.4251 10.2751L14.2876 12.3751L7.76262 5.8501H6.00012V7.6126L12.5251 14.1376L10.4251 16.2751ZM13.8751 23.7376L30.0001 7.6126V5.8501H28.2376L12.1126 21.9751L13.8751 23.7376Z" fill="white"/>
</g>
</svg>
