<svg width="31" height="30" viewBox="0 0 31 30" fill="none" xmlns="http://www.w3.org/2000/svg">
<mask id="mask0_8318_319" style="mask-type:alpha" maskUnits="userSpaceOnUse" x="0" y="0" width="31" height="30">
<rect x="0.5" width="30" height="30" fill="#D9D9D9"/>
</mask>
<g mask="url(#mask0_8318_319)">
<path d="M15.5 27.5C13.7708 27.5 12.1458 27.1719 10.625 26.5156C9.10417 25.8594 7.78125 24.9688 6.65625 23.8438C5.53125 22.7188 4.64063 21.3958 3.98438 19.875C3.32812 18.3542 3 16.7292 3 15C3 13.2708 3.32812 11.6458 3.98438 10.125C4.64063 8.60417 5.53125 7.28125 6.65625 6.15625C7.78125 5.03125 9.10417 4.14063 10.625 3.48438C12.1458 2.82812 13.7708 2.5 15.5 2.5C17.2292 2.5 18.8542 2.82812 20.375 3.48438C21.8958 4.14063 23.2188 5.03125 24.3438 6.15625C25.4688 7.28125 26.3594 8.60417 27.0156 10.125C27.6719 11.6458 28 13.2708 28 15C28 16.7292 27.6719 18.3542 27.0156 19.875C26.3594 21.3958 25.4688 22.7188 24.3438 23.8438C23.2188 24.9688 21.8958 25.8594 20.375 26.5156C18.8542 27.1719 17.2292 27.5 15.5 27.5ZM15.5 25C18.2917 25 20.6562 24.0312 22.5938 22.0938C24.5312 20.1562 25.5 17.7917 25.5 15C25.5 12.2083 24.5312 9.84375 22.5938 7.90625C20.6562 5.96875 18.2917 5 15.5 5C12.7083 5 10.3438 5.96875 8.40625 7.90625C6.46875 9.84375 5.5 12.2083 5.5 15C5.5 17.7917 6.46875 20.1562 8.40625 22.0938C10.3438 24.0312 12.7083 25 15.5 25ZM15.5 22.5C13.4167 22.5 11.6458 21.7708 10.1875 20.3125C8.72917 18.8542 8 17.0833 8 15C8 12.9167 8.72917 11.1458 10.1875 9.6875C11.6458 8.22917 13.4167 7.5 15.5 7.5C17.5833 7.5 19.3542 8.22917 20.8125 9.6875C22.2708 11.1458 23 12.9167 23 15C23 17.0833 22.2708 18.8542 20.8125 20.3125C19.3542 21.7708 17.5833 22.5 15.5 22.5ZM15.5 20C16.875 20 18.0521 19.5104 19.0312 18.5312C20.0104 17.5521 20.5 16.375 20.5 15C20.5 13.625 20.0104 12.4479 19.0312 11.4688C18.0521 10.4896 16.875 10 15.5 10C14.125 10 12.9479 10.4896 11.9688 11.4688C10.9896 12.4479 10.5 13.625 10.5 15C10.5 16.375 10.9896 17.5521 11.9688 18.5312C12.9479 19.5104 14.125 20 15.5 20ZM15.5 17.5C14.8125 17.5 14.224 17.2552 13.7344 16.7656C13.2448 16.276 13 15.6875 13 15C13 14.3125 13.2448 13.724 13.7344 13.2344C14.224 12.7448 14.8125 12.5 15.5 12.5C16.1875 12.5 16.776 12.7448 17.2656 13.2344C17.7552 13.724 18 14.3125 18 15C18 15.6875 17.7552 16.276 17.2656 16.7656C16.776 17.2552 16.1875 17.5 15.5 17.5Z" fill="white"/>
</g>
</svg>
