<svg width="807" height="77" viewBox="0 0 807 77" fill="none" xmlns="http://www.w3.org/2000/svg">
<g filter="url(#filter0_d_8754_1372)">
<path d="M27.7031 71.8594C26.3906 71.8594 25.0781 71.7969 23.7656 71.6719C22.4531 71.5469 21.1562 71.375 19.875 71.1562C19.3125 71.0625 18.75 70.9688 18.1875 70.875C17.625 70.8125 17.0469 70.7812 16.4531 70.7812C15.1406 70.7812 13.8594 71.0156 12.6094 71.4844C11.3594 71.9531 10.0781 72.1875 8.76562 72.1875C6.95312 72.1875 5.6875 71.6875 4.96875 70.6875C4.28125 69.6875 3.76562 68.3906 3.42188 66.7969C3.01562 64.8594 2.625 62.9062 2.25 60.9375C1.90625 58.9688 1.54688 57.0156 1.17188 55.0781C1.07812 54.7031 1.03125 54.3125 1.03125 53.9062C1.03125 52.4375 1.5625 51.2969 2.625 50.4844C3.71875 49.6719 4.9375 49.2656 6.28125 49.2656C7.5 49.2656 8.54688 49.6719 9.42188 50.4844C10.3281 51.2969 11.2188 52.3125 12.0938 53.5312C12.9688 54.75 13.9688 55.9688 15.0938 57.1875C16.25 58.375 17.6875 59.375 19.4062 60.1875C21.1562 61 23.3438 61.4062 25.9688 61.4062C27.5312 61.4062 29.1094 61.0625 30.7031 60.375C32.3281 59.6562 33.1406 58.3438 33.1406 56.4375C33.1406 55.125 32.75 54.1094 31.9688 53.3906C31.2188 52.6406 30.2969 52.0625 29.2031 51.6562C28.1094 51.2188 27.0625 50.8594 26.0625 50.5781C22.7812 49.6094 19.5938 48.5156 16.5 47.2969C13.4062 46.0469 10.6094 44.5 8.10938 42.6562C5.64062 40.8125 3.67188 38.5156 2.20312 35.7656C0.734375 33.0156 0 29.6406 0 25.6406C0 21.0156 1.07812 17.1406 3.23438 14.0156C5.42188 10.8594 8.32812 8.48438 11.9531 6.89062C15.5781 5.26562 19.5469 4.45312 23.8594 4.45312C25.1406 4.45312 26.4062 4.51562 27.6562 4.64062C28.9375 4.76563 30.2031 4.98437 31.4531 5.29688C32.4844 5.54687 33.5156 5.82812 34.5469 6.14062C35.6094 6.42188 36.6719 6.5625 37.7344 6.5625C38.9219 6.5625 39.9844 6.15625 40.9219 5.34375C41.8594 4.53125 42.9688 4.125 44.25 4.125C45.5625 4.125 46.6094 4.51562 47.3906 5.29688C48.2031 6.04688 48.8438 6.98438 49.3125 8.10938C49.8125 9.20312 50.2188 10.2656 50.5312 11.2969L54.2812 23.25C54.5 24 54.6094 24.6875 54.6094 25.3125C54.6094 26.8438 54.0625 28.0625 52.9688 28.9688C51.875 29.875 50.5938 30.3281 49.125 30.3281C47.7812 30.3281 46.7812 29.9844 46.125 29.2969C45.4688 28.5781 44.8125 27.7031 44.1562 26.6719C42.0625 23.4219 39.7188 20.6719 37.125 18.4219C34.5312 16.1719 31.1406 15.0469 26.9531 15.0469C25.4219 15.0469 24.0156 15.4375 22.7344 16.2188C21.4844 17 20.8594 18.25 20.8594 19.9688C20.8594 21.4688 21.3281 22.6719 22.2656 23.5781C23.2344 24.4531 24.3906 25.1562 25.7344 25.6875C27.0781 26.1875 28.3281 26.625 29.4844 27C32.5156 27.9688 35.4375 29.0625 38.25 30.2812C41.0625 31.5 43.5781 33 45.7969 34.7812C48.0469 36.5625 49.8125 38.75 51.0938 41.3438C52.4062 43.9375 53.0625 47.0625 53.0625 50.7188C53.0625 54.25 52.3438 57.3438 50.9062 60C49.5 62.6562 47.5938 64.8594 45.1875 66.6094C42.7812 68.3594 40.0625 69.6719 37.0312 70.5469C34 71.4219 30.8906 71.8594 27.7031 71.8594ZM84.6562 71.8594C79.3125 71.8594 75.0938 70.625 72 68.1562C68.9375 65.6562 67.4062 61.5938 67.4062 55.9688V35.5781C67.4062 34.2344 67.1094 33.2344 66.5156 32.5781C65.9219 31.9219 65.2344 31.3906 64.4531 30.9844C63.6719 30.5469 62.9844 30.0312 62.3906 29.4375C61.7969 28.8125 61.5 27.875 61.5 26.625C61.5 25.3438 61.9531 24.3438 62.8594 23.625C63.7656 22.875 64.8281 22.5 66.0469 22.5H68.1562C69.0625 22.5 69.9531 22.0469 70.8281 21.1406C71.7344 20.2031 72.6406 19.0469 73.5469 17.6719C74.4844 16.2969 75.4531 14.9375 76.4531 13.5938C77.4844 12.2188 78.5781 11.0781 79.7344 10.1719C80.8906 9.23438 82.1562 8.76562 83.5312 8.76562C85.0938 8.76562 86.3125 9.20312 87.1875 10.0781C88.0625 10.9531 88.5 12.1719 88.5 13.7344V22.5H99.1406C100.328 22.5 101.344 22.7812 102.188 23.3438C103.031 23.9062 103.453 24.8438 103.453 26.1562C103.453 27.9062 102.891 29.2344 101.766 30.1406C100.672 31.0469 99.3438 31.6562 97.7812 31.9688C96.2188 32.25 94.75 32.3906 93.375 32.3906H88.5V50.9531C88.5 52.4844 88.7969 53.9375 89.3906 55.3125C89.9844 56.6562 91.2031 57.3281 93.0469 57.3281C94.2656 57.3281 95.2969 56.9844 96.1406 56.2969C97.0156 55.5781 97.8281 54.875 98.5781 54.1875C99.3594 53.5 100.188 53.1562 101.062 53.1562C101.875 53.1562 102.438 53.5469 102.75 54.3281C103.094 55.1094 103.266 55.8125 103.266 56.4375C103.266 59.5938 102.312 62.3281 100.406 64.6406C98.5 66.9531 96.1094 68.7344 93.2344 69.9844C90.3906 71.2344 87.5312 71.8594 84.6562 71.8594ZM110.531 59.7188C110.531 56.8438 111.203 54.4531 112.547 52.5469C113.891 50.6094 115.641 49.0625 117.797 47.9062C119.984 46.7188 122.344 45.875 124.875 45.375C127.406 44.875 129.844 44.625 132.188 44.625C132.875 44.625 133.578 44.6406 134.297 44.6719C135.016 44.6719 135.719 44.7344 136.406 44.8594V32.6719C136.406 31.8906 136.234 30.9844 135.891 29.9531C135.578 28.9219 134.922 28.4062 133.922 28.4062C132.953 28.4062 132.344 28.8125 132.094 29.625C131.875 30.4062 131.766 31.1562 131.766 31.875C131.766 32.1875 131.766 32.5156 131.766 32.8594C131.797 33.1719 131.812 33.5 131.812 33.8438C131.812 37.0625 130.703 39.3281 128.484 40.6406C126.266 41.9219 123.734 42.5625 120.891 42.5625C118.516 42.5625 116.453 42.0312 114.703 40.9688C112.953 39.9062 112.078 38.0312 112.078 35.3438C112.078 34.2812 112.281 33.25 112.688 32.25C113.125 31.25 113.672 30.3594 114.328 29.5781C116.234 27.2656 118.625 25.5 121.5 24.2812C124.406 23.0625 127.453 22.2344 130.641 21.7969C133.859 21.3281 136.875 21.0938 139.688 21.0938C142.875 21.0938 145.797 21.5469 148.453 22.4531C151.109 23.3594 153.234 24.875 154.828 27C156.422 29.0938 157.219 31.9219 157.219 35.4844V57.0938C157.219 57.625 157.344 58.0938 157.594 58.5C157.844 58.9062 158.266 59.1094 158.859 59.1094C159.328 59.1094 159.719 58.9688 160.031 58.6875C160.375 58.375 160.781 58.2188 161.25 58.2188C162.156 58.2188 162.828 58.5312 163.266 59.1562C163.734 59.7812 163.969 60.5156 163.969 61.3594C163.969 63.5469 163.297 65.4375 161.953 67.0312C160.641 68.5938 159 69.7812 157.031 70.5938C155.062 71.4375 153.078 71.8594 151.078 71.8594C148.734 71.8594 146.359 71.3438 143.953 70.3125C141.578 69.2812 139.938 67.6719 139.031 65.4844C137.438 67.7031 135.25 69.3281 132.469 70.3594C129.719 71.3594 127.016 71.8594 124.359 71.8594C121.922 71.8594 119.641 71.4062 117.516 70.5C115.422 69.5625 113.734 68.1875 112.453 66.375C111.172 64.5625 110.531 62.3438 110.531 59.7188ZM131.672 55.5938C131.672 56.8438 131.969 58.0312 132.562 59.1562C133.156 60.25 134.172 60.7969 135.609 60.7969C135.891 60.7969 136.156 60.7656 136.406 60.7031V51C135.875 50.7812 135.328 50.6719 134.766 50.6719C133.578 50.6719 132.766 51.2656 132.328 52.4531C131.891 53.6094 131.672 54.6562 131.672 55.5938ZM168.797 48.0469C168.797 43.2969 169.719 38.875 171.562 34.7812C173.406 30.6562 176.094 27.3281 179.625 24.7969C183.156 22.2656 187.469 21 192.562 21C195.625 21 198.422 21.6562 200.953 22.9688V18.9844C200.953 17.6094 200.719 16.5781 200.25 15.8906C199.812 15.2031 199.297 14.6563 198.703 14.25C198.141 13.8125 197.625 13.3438 197.156 12.8438C196.719 12.3125 196.5 11.5312 196.5 10.5C196.5 9.21875 196.875 8.25 197.625 7.59375C198.406 6.90625 199.328 6.35938 200.391 5.95312L210.562 1.875C211.75 1.375 212.969 0.9375 214.219 0.5625C215.469 0.1875 216.75 0 218.062 0C219.344 0 220.312 0.453125 220.969 1.35938C221.656 2.23438 222 3.26563 222 4.45312V56.7188C222 58.25 222.109 59.3125 222.328 59.9062C222.547 60.5 223.188 61.3594 224.25 62.4844C224.875 63.1406 225.312 63.7031 225.562 64.1719C225.812 64.6094 225.938 65.2969 225.938 66.2344C225.938 67.5781 225.5 68.625 224.625 69.375C223.75 70.125 222.656 70.5 221.344 70.5H210.844C209.094 70.5 207.406 69.9688 205.781 68.9062C204.188 67.8125 203.062 66.4375 202.406 64.7812C200.5 66.8438 198.328 68.5469 195.891 69.8906C193.484 71.2031 190.781 71.8594 187.781 71.8594C184.594 71.8594 181.797 71.1719 179.391 69.7969C177.016 68.3906 175.047 66.5312 173.484 64.2188C171.922 61.875 170.75 59.2969 169.969 56.4844C169.188 53.6719 168.797 50.8594 168.797 48.0469ZM190.547 45.7031C190.547 46.8281 190.625 48.1875 190.781 49.7812C190.969 51.3438 191.297 52.8906 191.766 54.4219C192.266 55.9219 192.984 57.1875 193.922 58.2188C194.891 59.2188 196.141 59.7188 197.672 59.7188C198.859 59.7188 199.953 59.3125 200.953 58.5V33.4688C200.422 32.9375 199.828 32.5156 199.172 32.2031C198.516 31.8594 197.797 31.6875 197.016 31.6875C195.578 31.6875 194.422 32.2188 193.547 33.2812C192.703 34.3125 192.062 35.6094 191.625 37.1719C191.188 38.7031 190.891 40.25 190.734 41.8125C190.609 43.375 190.547 44.6719 190.547 45.7031ZM255.656 21C256.938 21 257.922 21.4375 258.609 22.3125C259.328 23.1875 259.688 24.2344 259.688 25.4531V56.3906C259.688 57.2656 259.719 58.1562 259.781 59.0625C259.875 59.9375 260.234 60.7031 260.859 61.3594C261.672 62.2344 262.344 62.9219 262.875 63.4219C263.438 63.9219 263.719 64.8594 263.719 66.2344C263.719 67.6094 263.281 68.6719 262.406 69.4219C261.562 70.1406 260.469 70.5 259.125 70.5H239.203C237.859 70.5 236.75 70.1406 235.875 69.4219C235.031 68.7031 234.609 67.6406 234.609 66.2344C234.609 64.8906 234.875 63.9531 235.406 63.4219C235.938 62.8594 236.625 62.1719 237.469 61.3594C238.094 60.7344 238.438 59.9531 238.5 59.0156C238.594 58.0781 238.641 57.2031 238.641 56.3906V40.0312C238.641 39.4062 238.594 38.7656 238.5 38.1094C238.406 37.4219 238.141 36.8438 237.703 36.375C237.578 36.2188 237.422 36.0938 237.234 36C237.078 35.9062 236.938 35.7969 236.812 35.6719C236.125 34.9531 235.484 34.375 234.891 33.9375C234.328 33.4688 234.047 32.6562 234.047 31.5C234.047 30.25 234.438 29.2812 235.219 28.5938C236 27.9062 236.922 27.3594 237.984 26.9531L248.109 22.875C249.297 22.4062 250.531 21.9844 251.812 21.6094C253.094 21.2031 254.375 21 255.656 21ZM248.625 20.8125C246.625 20.8125 244.609 20.5156 242.578 19.9219C240.547 19.3281 238.844 18.3437 237.469 16.9688C236.125 15.5625 235.453 13.6719 235.453 11.2969C235.453 8.92187 236.141 7.0625 237.516 5.71875C238.891 4.34375 240.594 3.375 242.625 2.8125C244.656 2.25 246.656 1.96875 248.625 1.96875C250.594 1.96875 252.594 2.25 254.625 2.8125C256.688 3.375 258.406 4.34375 259.781 5.71875C261.188 7.0625 261.891 8.92187 261.891 11.2969C261.891 13.7031 261.203 15.6094 259.828 17.0156C258.453 18.3906 256.734 19.375 254.672 19.9688C252.641 20.5312 250.625 20.8125 248.625 20.8125ZM288.234 71.8594C285.266 71.8594 282.781 71.1094 280.781 69.6094C278.812 68.0781 277.344 66.0938 276.375 63.6562C275.406 61.2188 274.922 58.6562 274.922 55.9688V40.0312C274.922 38.875 274.828 38.0625 274.641 37.5938C274.453 37.0938 273.922 36.4531 273.047 35.6719C272.359 35.0469 271.703 34.4688 271.078 33.9375C270.484 33.375 270.188 32.5625 270.188 31.5C270.188 30.2812 270.578 29.3281 271.359 28.6406C272.172 27.9219 273.094 27.3594 274.125 26.9531L284.438 22.875C285.656 22.375 286.875 21.9375 288.094 21.5625C289.344 21.1875 290.641 21 291.984 21C293.266 21 294.25 21.4531 294.938 22.3594C295.625 23.2344 295.969 24.2656 295.969 25.4531V50.9062C295.969 51.7812 296.062 52.7188 296.25 53.7188C296.469 54.7188 296.875 55.5781 297.469 56.2969C298.062 56.9844 298.922 57.3281 300.047 57.3281C301.203 57.3281 302.219 57.0781 303.094 56.5781C303.969 56.0469 304.766 55.4062 305.484 54.6562V40.0312C305.484 38.8438 305.375 37.9844 305.156 37.4531C304.969 36.8906 304.391 36.2344 303.422 35.4844C302.703 34.9219 302.078 34.375 301.547 33.8438C301.016 33.3125 300.75 32.5312 300.75 31.5C300.75 30.2812 301.141 29.3281 301.922 28.6406C302.734 27.9219 303.656 27.3594 304.688 26.9531L315 22.875C316.219 22.375 317.438 21.9375 318.656 21.5625C319.906 21.1875 321.203 21 322.547 21C323.828 21 324.812 21.4375 325.5 22.3125C326.219 23.1875 326.578 24.2344 326.578 25.4531V56.3906C326.578 57.2656 326.609 58.1406 326.672 59.0156C326.766 59.8594 327.125 60.6406 327.75 61.3594C328.531 62.2031 329.219 62.9062 329.812 63.4688C330.406 64.0312 330.703 64.9531 330.703 66.2344C330.703 67.6406 330.281 68.7031 329.438 69.4219C328.594 70.1406 327.484 70.5 326.109 70.5H315.422C313.047 70.5 310.953 69.6094 309.141 67.8281C307.359 66.0469 306.469 63.9844 306.469 61.6406C304.75 63.2969 302.875 64.9062 300.844 66.4688C298.812 68.0312 296.719 69.3281 294.562 70.3594C292.438 71.3594 290.328 71.8594 288.234 71.8594ZM360.375 21C361.656 21 362.625 21.4531 363.281 22.3594C363.969 23.2344 364.312 24.2656 364.312 25.4531V30.1875C366.75 27.875 369.438 25.7656 372.375 23.8594C375.344 21.9531 378.234 21 381.047 21C384.391 21 387.062 21.9688 389.062 23.9062C391.062 25.8438 392.453 28.2031 393.234 30.9844C394.891 29.3594 396.672 27.7812 398.578 26.25C400.484 24.7188 402.469 23.4688 404.531 22.5C406.594 21.5 408.688 21 410.812 21C413.781 21 416.219 21.7813 418.125 23.3438C420.062 24.875 421.484 26.8594 422.391 29.2969C423.328 31.7031 423.797 34.2344 423.797 36.8906V56.3906C423.797 57.1094 423.844 58.0156 423.938 59.1094C424.031 60.1719 424.375 60.9531 424.969 61.4531V61.5C425.656 62.2188 426.266 62.9219 426.797 63.6094C427.328 64.2656 427.594 65.1406 427.594 66.2344C427.594 67.6094 427.172 68.6719 426.328 69.4219C425.484 70.1406 424.391 70.5 423.047 70.5H403.781C402.5 70.5 401.5 70.1094 400.781 69.3281C400.062 68.5156 399.703 67.4844 399.703 66.2344C399.703 65.0781 399.969 64.1875 400.5 63.5625C401.062 62.9375 401.609 62.25 402.141 61.5C402.672 60.7188 402.938 59.5938 402.938 58.125V41.9531C402.938 41.0781 402.844 40.1562 402.656 39.1875C402.469 38.1875 402.094 37.3281 401.531 36.6094C400.969 35.8906 400.125 35.5312 399 35.5312C397.969 35.5312 397.047 35.8125 396.234 36.375C395.453 36.9375 394.719 37.5625 394.031 38.25V57.7031C394.031 59.3594 394.297 60.5938 394.828 61.4062C395.359 62.2188 395.891 62.9375 396.422 63.5625C396.953 64.1875 397.219 65.0781 397.219 66.2344C397.219 67.5156 396.859 68.5469 396.141 69.3281C395.453 70.1094 394.453 70.5 393.141 70.5H374.016C372.703 70.5 371.703 70.1094 371.016 69.3281C370.328 68.5156 369.984 67.4844 369.984 66.2344C369.984 65.0781 370.25 64.1875 370.781 63.5625C371.312 62.9062 371.844 62.2031 372.375 61.4531C372.906 60.7031 373.172 59.5938 373.172 58.125V41.9531C373.172 41.0781 373.078 40.1562 372.891 39.1875C372.703 38.1875 372.328 37.3281 371.766 36.6094C371.203 35.8906 370.359 35.5312 369.234 35.5312C368.234 35.5312 367.328 35.8125 366.516 36.375C365.703 36.9062 364.969 37.5312 364.312 38.25V57.7031C364.312 59.3906 364.578 60.6406 365.109 61.4531C365.641 62.2656 366.172 62.9844 366.703 63.6094C367.234 64.2031 367.5 65.0781 367.5 66.2344C367.5 67.4844 367.156 68.5156 366.469 69.3281C365.781 70.1094 364.781 70.5 363.469 70.5H344.203C342.859 70.5 341.766 70.1406 340.922 69.4219C340.078 68.6719 339.656 67.6094 339.656 66.2344C339.656 64.8594 339.969 63.8438 340.594 63.1875C341.25 62.5312 341.891 61.8281 342.516 61.0781C343.141 60.2969 343.453 59.0781 343.453 57.4219V40.0312C343.453 38.625 343.234 37.5781 342.797 36.8906C342.359 36.1719 341.859 35.6094 341.297 35.2031C340.734 34.7969 340.234 34.3438 339.797 33.8438C339.359 33.3125 339.141 32.5312 339.141 31.5C339.141 30.2188 339.516 29.25 340.266 28.5938C341.047 27.9375 341.969 27.3906 343.031 26.9531L352.922 22.875C354.109 22.375 355.312 21.9375 356.531 21.5625C357.781 21.1875 359.062 21 360.375 21ZM463.828 10.7344C463.828 8.95312 464.359 7.65625 465.422 6.84375C466.484 6.03125 467.844 5.625 469.5 5.625H500.859C501.641 5.625 502.781 5.54687 504.281 5.39062C505.781 5.23438 506.875 5 507.562 4.6875C508.281 4.6875 508.969 4.59375 509.625 4.40625C510.312 4.1875 511 4.07812 511.688 4.07812C513.844 4.07812 515.438 4.65625 516.469 5.8125C517.531 6.96875 518.312 8.39062 518.812 10.0781C519.312 11.7344 519.797 13.375 520.266 15C520.609 16.1563 521 17.3906 521.438 18.7031C521.906 20.0156 522.141 21.2969 522.141 22.5469C522.141 24.0156 521.531 25.125 520.312 25.875C519.125 26.625 517.875 27 516.562 27C515.219 27 514.188 26.6719 513.469 26.0156C512.781 25.3594 512.125 24.4844 511.5 23.3906C510.469 21.5156 509.562 20.0469 508.781 18.9844C508.031 17.9219 507.062 17.1719 505.875 16.7344C504.719 16.2969 502.984 16.0781 500.672 16.0781H493.547V33.2812H497.25C498.75 33.2812 499.797 32.9062 500.391 32.1562C500.984 31.4062 501.422 30.5312 501.703 29.5312C502.016 28.5312 502.469 27.6562 503.062 26.9062C503.688 26.1562 504.766 25.7812 506.297 25.7812C507.578 25.7812 508.594 26.1406 509.344 26.8594C510.125 27.5781 510.656 28.5312 510.938 29.7188L513.797 41.625C513.859 41.9375 513.922 42.2812 513.984 42.6562C514.047 43 514.078 43.3438 514.078 43.6875C514.078 45.0625 513.609 46.1719 512.672 47.0156C511.734 47.8594 510.594 48.2812 509.25 48.2812C508.312 48.2812 507.516 48.0469 506.859 47.5781C506.234 47.0781 505.625 46.5 505.031 45.8438C504.125 44.8125 503.391 44.0781 502.828 43.6406C502.297 43.2031 501.688 42.9375 501 42.8438C500.312 42.75 499.297 42.7031 497.953 42.7031H493.547V52.2188C493.547 54.625 494.219 56.5312 495.562 57.9375C496.906 59.3438 498.797 60.0469 501.234 60.0469C503.734 60.0469 505.656 59.8281 507 59.3906C508.375 58.9531 509.5 58.1719 510.375 57.0469C511.281 55.8906 512.297 54.25 513.422 52.125C514.016 51.0312 514.656 50.1406 515.344 49.4531C516.031 48.7656 517.047 48.4219 518.391 48.4219C519.859 48.4219 521.141 48.875 522.234 49.7812C523.359 50.6562 523.922 51.875 523.922 53.4375C523.922 54.0312 523.812 54.7188 523.594 55.5L520.969 64.7344C520.375 66.8281 519.594 68.5938 518.625 70.0312C517.656 71.4375 515.938 72.1406 513.469 72.1406C512.5 72.1406 511.547 72.0156 510.609 71.7656C509.672 71.5469 508.75 71.3281 507.844 71.1094C506.188 70.7031 504.438 70.5 502.594 70.5H469.5C467.844 70.5 466.484 70.0938 465.422 69.2812C464.359 68.4688 463.828 67.1719 463.828 65.3906C463.828 63.7656 464.156 62.5625 464.812 61.7812C465.5 61 466.281 60.375 467.156 59.9062C468.031 59.4062 468.797 58.8281 469.453 58.1719C470.141 57.5156 470.484 56.5156 470.484 55.1719V20.9531C470.484 19.6094 470.141 18.6094 469.453 17.9531C468.797 17.2969 468.031 16.7344 467.156 16.2656C466.281 15.7656 465.5 15.125 464.812 14.3438C464.156 13.5625 463.828 12.3594 463.828 10.7344ZM562.547 71.4844H555.234C553.203 71.4844 551.562 70.875 550.312 69.6562C549.094 68.4375 548.109 66.9688 547.359 65.25L534.188 35.2969C533.688 34.2031 533.266 33.3594 532.922 32.7656C532.578 32.1719 531.922 31.4844 530.953 30.7031C530.234 30.1094 529.672 29.5469 529.266 29.0156C528.891 28.4844 528.703 27.7188 528.703 26.7188C528.703 25.3125 529.156 24.2656 530.062 23.5781C531 22.8594 532.125 22.5 533.438 22.5H558.703C560.016 22.5 561.047 22.875 561.797 23.625C562.547 24.375 562.922 25.4062 562.922 26.7188C562.922 27.8438 562.625 28.7031 562.031 29.2969C561.438 29.8906 560.75 30.4062 559.969 30.8438C559.188 31.25 558.5 31.7344 557.906 32.2969C557.312 32.8594 557.016 33.6875 557.016 34.7812C557.016 35.4688 557.094 36.1562 557.25 36.8438C557.438 37.5 557.656 38.1406 557.906 38.7656L565.078 57.1406L571.969 39.5156C572.219 38.8281 572.422 38.1406 572.578 37.4531C572.766 36.7344 572.859 36.0156 572.859 35.2969C572.859 34.0469 572.562 33.125 571.969 32.5312C571.406 31.9062 570.734 31.3906 569.953 30.9844C569.172 30.5781 568.484 30.0781 567.891 29.4844C567.328 28.8594 567.047 27.9375 567.047 26.7188C567.047 25.3125 567.484 24.2656 568.359 23.5781C569.234 22.8594 570.344 22.5 571.688 22.5H584.672C586.016 22.5 587.125 22.8438 588 23.5312C588.906 24.2188 589.359 25.2812 589.359 26.7188C589.359 27.875 589.141 28.7188 588.703 29.25C588.297 29.75 587.688 30.3594 586.875 31.0781C585.688 32.1406 584.844 33.1094 584.344 33.9844C583.875 34.8594 583.344 36.0156 582.75 37.4531C580.75 42.1719 578.766 46.9219 576.797 51.7031C574.828 56.4531 572.734 61.1562 570.516 65.8125C569.672 67.5312 568.641 68.9062 567.422 69.9375C566.203 70.9688 564.578 71.4844 562.547 71.4844ZM638.109 39.5156C638.109 42.2969 637.281 44.4062 635.625 45.8438C634 47.2812 631.844 48 629.156 48H610.266C610.984 50.6875 612.266 52.9531 614.109 54.7969C615.953 56.6094 618.609 57.5156 622.078 57.5156C623.453 57.5156 624.812 57.2344 626.156 56.6719C627.531 56.0781 628.812 55.3906 630 54.6094C631.219 53.8281 632.281 53.1562 633.188 52.5938C634.094 52 634.781 51.7031 635.25 51.7031C636.156 51.7031 636.812 52.0312 637.219 52.6875C637.625 53.3125 637.828 54.0312 637.828 54.8438C637.828 57.6875 637.156 60.1875 635.812 62.3438C634.5 64.4688 632.75 66.2344 630.562 67.6406C628.406 69.0469 626.031 70.0938 623.438 70.7812C620.875 71.5 618.344 71.8594 615.844 71.8594C610.938 71.8594 606.609 70.8438 602.859 68.8125C599.109 66.7812 596.172 63.9375 594.047 60.2812C591.953 56.5938 590.906 52.2656 590.906 47.2969C590.906 41.9844 591.922 37.3594 593.953 33.4219C596.016 29.4844 598.969 26.4375 602.812 24.2812C606.656 22.0937 611.266 21 616.641 21C620.359 21 623.844 21.7031 627.094 23.1094C630.375 24.5156 633.031 26.5938 635.062 29.3438C637.094 32.0938 638.109 35.4844 638.109 39.5156ZM609.422 40.7812C609.422 41.125 609.422 41.4688 609.422 41.8125H614.297C615.484 41.8125 616.297 41.5469 616.734 41.0156C617.172 40.4531 617.391 39.6094 617.391 38.4844C617.391 37.7344 617.297 36.75 617.109 35.5312C616.922 34.3125 616.547 33.2188 615.984 32.25C615.453 31.2812 614.672 30.7969 613.641 30.7969C612.703 30.7969 611.953 31.1875 611.391 31.9688C610.828 32.7188 610.406 33.6719 610.125 34.8281C609.844 35.9531 609.656 37.0625 609.562 38.1562C609.469 39.25 609.422 40.125 609.422 40.7812ZM666.938 21C668.219 21 669.188 21.4531 669.844 22.3594C670.531 23.2344 670.875 24.2656 670.875 25.4531V29.7656C673.344 27.4844 676.062 25.4531 679.031 23.6719C682 21.8906 684.938 21 687.844 21C690.875 21 693.391 21.75 695.391 23.25C697.391 24.75 698.891 26.7031 699.891 29.1094C700.922 31.5156 701.438 34.1094 701.438 36.8906V56.3906C701.438 57.2656 701.469 58.125 701.531 58.9688C701.625 59.8125 701.969 60.6094 702.562 61.3594C703.281 62.2656 703.906 62.9688 704.438 63.4688C705 63.9688 705.281 64.8906 705.281 66.2344C705.281 67.6094 704.859 68.6719 704.016 69.4219C703.172 70.1406 702.078 70.5 700.734 70.5H681.141C679.828 70.5 678.812 70.1094 678.094 69.3281C677.406 68.5469 677.062 67.5156 677.062 66.2344C677.062 65.0469 677.328 64.125 677.859 63.4688C678.422 62.7812 678.969 62.0781 679.5 61.3594C680.062 60.6094 680.344 59.5625 680.344 58.2188V41.9531C680.344 40.4844 680.047 39.0469 679.453 37.6406C678.891 36.2344 677.703 35.5312 675.891 35.5312C674.797 35.5312 673.859 35.75 673.078 36.1875C672.297 36.5938 671.562 37.125 670.875 37.7812V56.9531C670.875 57.7969 670.906 58.6562 670.969 59.5312C671.031 60.375 671.344 61.1562 671.906 61.875C672.562 62.6562 673.109 63.2969 673.547 63.7969C673.984 64.2656 674.203 65.0781 674.203 66.2344C674.203 67.5156 673.844 68.5469 673.125 69.3281C672.438 70.1094 671.438 70.5 670.125 70.5H650.531C649.188 70.5 648.094 70.1406 647.25 69.4219C646.406 68.6719 645.984 67.6094 645.984 66.2344C645.984 65.2031 646.172 64.4062 646.547 63.8438C646.953 63.25 647.406 62.7031 647.906 62.2031C648.406 61.7031 648.844 61.0938 649.219 60.375C649.625 59.6562 649.828 58.6719 649.828 57.4219V40.0312C649.828 38.625 649.609 37.5625 649.172 36.8438C648.734 36.125 648.219 35.5625 647.625 35.1562C647.031 34.7188 646.516 34.25 646.078 33.75C645.641 33.25 645.422 32.5 645.422 31.5C645.422 30.2812 645.828 29.3281 646.641 28.6406C647.453 27.9219 648.359 27.3594 649.359 26.9531L659.484 22.875C660.672 22.375 661.875 21.9375 663.094 21.5625C664.344 21.1875 665.625 21 666.938 21ZM734.344 71.8594C729 71.8594 724.781 70.625 721.688 68.1562C718.625 65.6562 717.094 61.5938 717.094 55.9688V35.5781C717.094 34.2344 716.797 33.2344 716.203 32.5781C715.609 31.9219 714.922 31.3906 714.141 30.9844C713.359 30.5469 712.672 30.0312 712.078 29.4375C711.484 28.8125 711.188 27.875 711.188 26.625C711.188 25.3438 711.641 24.3438 712.547 23.625C713.453 22.875 714.516 22.5 715.734 22.5H717.844C718.75 22.5 719.641 22.0469 720.516 21.1406C721.422 20.2031 722.328 19.0469 723.234 17.6719C724.172 16.2969 725.141 14.9375 726.141 13.5938C727.172 12.2188 728.266 11.0781 729.422 10.1719C730.578 9.23438 731.844 8.76562 733.219 8.76562C734.781 8.76562 736 9.20312 736.875 10.0781C737.75 10.9531 738.188 12.1719 738.188 13.7344V22.5H748.828C750.016 22.5 751.031 22.7812 751.875 23.3438C752.719 23.9062 753.141 24.8438 753.141 26.1562C753.141 27.9062 752.578 29.2344 751.453 30.1406C750.359 31.0469 749.031 31.6562 747.469 31.9688C745.906 32.25 744.438 32.3906 743.062 32.3906H738.188V50.9531C738.188 52.4844 738.484 53.9375 739.078 55.3125C739.672 56.6562 740.891 57.3281 742.734 57.3281C743.953 57.3281 744.984 56.9844 745.828 56.2969C746.703 55.5781 747.516 54.875 748.266 54.1875C749.047 53.5 749.875 53.1562 750.75 53.1562C751.562 53.1562 752.125 53.5469 752.438 54.3281C752.781 55.1094 752.953 55.8125 752.953 56.4375C752.953 59.5938 752 62.3281 750.094 64.6406C748.188 66.9531 745.797 68.7344 742.922 69.9844C740.078 71.2344 737.219 71.8594 734.344 71.8594ZM781.688 29.0156C780.625 29.0156 779.672 29.25 778.828 29.7188C777.984 30.1875 777.562 31.0312 777.562 32.25C777.562 33.25 777.797 34.0156 778.266 34.5469C778.734 35.0781 779.406 35.5312 780.281 35.9062C781.219 36.3125 782.203 36.6094 783.234 36.7969C784.266 36.9844 785.266 37.1875 786.234 37.4062C789.109 38.0312 791.797 39.0938 794.297 40.5938C796.797 42.0625 798.812 43.9688 800.344 46.3125C801.906 48.625 802.688 51.375 802.688 54.5625C802.688 58.8438 801.719 62.25 799.781 64.7812C797.844 67.3125 795.266 69.125 792.047 70.2188C788.859 71.3125 785.359 71.8594 781.547 71.8594C780.578 71.8594 779.234 71.7344 777.516 71.4844C775.828 71.2344 774.578 70.8906 773.766 70.4531H773.719C773.406 70.2969 772.891 70.125 772.172 69.9375C771.453 69.75 770.922 69.6562 770.578 69.6562C769.609 69.6562 768.781 70.0312 768.094 70.7812C767.406 71.5625 766.562 71.9531 765.562 71.9531C764.219 71.9531 763.156 71.5156 762.375 70.6406C761.625 69.7656 761.047 68.7344 760.641 67.5469C760.266 66.3281 759.922 65.2031 759.609 64.1719C759.391 63.2969 759.141 62.4375 758.859 61.5938C758.578 60.7188 758.438 59.8281 758.438 58.9219C758.438 57.2969 758.875 55.9844 759.75 54.9844C760.625 53.9844 761.891 53.4844 763.547 53.4844C765.172 53.4844 766.516 53.8438 767.578 54.5625C768.641 55.25 769.578 56.1094 770.391 57.1406C771.234 58.1719 772.078 59.2188 772.922 60.2812C773.797 61.3125 774.844 62.1875 776.062 62.9062C777.281 63.5938 778.812 63.9375 780.656 63.9375C781.938 63.9375 782.906 63.5625 783.562 62.8125C784.219 62.0312 784.547 61.0312 784.547 59.8125C784.547 58.0625 784.078 56.9375 783.141 56.4375C782.203 55.9375 781 55.5469 779.531 55.2656C776.844 54.7344 774.281 54.1094 771.844 53.3906C769.438 52.6719 767.297 51.6875 765.422 50.4375C763.578 49.1875 762.109 47.5312 761.016 45.4688C759.953 43.4062 759.422 40.75 759.422 37.5C759.422 33.6562 760.469 30.5312 762.562 28.125C764.656 25.6875 767.312 23.8906 770.531 22.7344C773.781 21.5781 777.078 21 780.422 21C781.703 21 782.953 21.0469 784.172 21.1406C785.422 21.2344 786.656 21.4844 787.875 21.8906C788.031 21.9219 788.391 22.0469 788.953 22.2656C789.547 22.4844 790.125 22.7031 790.688 22.9219C791.25 23.1094 791.531 23.2031 791.531 23.2031C792.562 23.2031 793.438 22.8438 794.156 22.125C794.906 21.375 795.797 21 796.828 21C798.141 21 799.109 21.5156 799.734 22.5469C800.359 23.5469 800.797 24.7188 801.047 26.0625C801.328 27.4062 801.547 28.5469 801.703 29.4844C801.828 30.2031 801.953 30.9375 802.078 31.6875C802.203 32.4062 802.266 33.125 802.266 33.8438C802.266 35.0938 801.969 36.2812 801.375 37.4062C800.812 38.5 799.797 39.0469 798.328 39.0469C796.859 39.0469 795.562 38.5469 794.438 37.5469C793.312 36.5156 792.188 35.3438 791.062 34.0312C789.938 32.7188 788.641 31.5625 787.172 30.5625C785.703 29.5312 783.875 29.0156 781.688 29.0156Z" fill="url(#paint0_linear_8754_1372)"/>
</g>
<defs>
<filter id="filter0_d_8754_1372" x="0" y="0" width="806.688" height="76.1875" filterUnits="userSpaceOnUse" color-interpolation-filters="sRGB">
<feFlood flood-opacity="0" result="BackgroundImageFix"/>
<feColorMatrix in="SourceAlpha" type="matrix" values="0 0 0 0 0 0 0 0 0 0 0 0 0 0 0 0 0 0 127 0" result="hardAlpha"/>
<feOffset dx="2" dy="2"/>
<feGaussianBlur stdDeviation="1"/>
<feComposite in2="hardAlpha" operator="out"/>
<feColorMatrix type="matrix" values="0 0 0 0 0.822115 0 0 0 0 1 0 0 0 0 1 0 0 0 1 0"/>
<feBlend mode="normal" in2="BackgroundImageFix" result="effect1_dropShadow_8754_1372"/>
<feBlend mode="normal" in="SourceGraphic" in2="effect1_dropShadow_8754_1372" result="shape"/>
</filter>
<linearGradient id="paint0_linear_8754_1372" x1="-4.34375" y1="37.5" x2="803.656" y2="37.5" gradientUnits="userSpaceOnUse">
<stop stop-color="#02FFFF"/>
<stop offset="0.495192" stop-color="#0088FF"/>
<stop offset="1" stop-color="#02FFFF"/>
</linearGradient>
</defs>
</svg>
