<svg width="76" height="49" viewBox="0 0 76 49" fill="none" xmlns="http://www.w3.org/2000/svg">
<g filter="url(#filter0_d_8750_1267)">
<path d="M6.63581 6.49713C8.69691 4.61713 11.928 4.56559 14.0304 6.36627L14.2296 6.54596L14.2315 6.54694L20.2442 12.2657L20.2569 12.2774L20.2657 12.2862C20.2713 12.2915 20.284 12.3029 20.3019 12.3185C20.3378 12.3499 20.3956 12.3985 20.4728 12.4532C20.631 12.5655 20.8488 12.6911 21.1007 12.7696C21.3469 12.8464 21.6164 12.8758 21.9054 12.8126C22.1911 12.7501 22.5598 12.5837 22.9874 12.173L24.1368 11.0685C24.2989 10.9135 24.4395 10.7803 24.544 10.6817C24.5959 10.6329 24.6412 10.5905 24.6769 10.5577C24.691 10.5447 24.7566 10.4835 24.8155 10.4396L24.8829 10.3937C24.9644 10.3425 25.0871 10.2809 25.2472 10.253C25.4957 10.2098 25.7647 10.2601 25.9903 10.4151C26.1853 10.5492 26.2826 10.7162 26.3263 10.8058C26.3726 10.901 26.3948 10.9846 26.4054 11.0313C26.4388 11.179 26.434 11.3194 26.4337 11.336C26.4327 11.3999 26.4234 11.5731 26.421 11.6446C26.4136 11.8673 26.4139 12.1742 26.4679 12.5333C26.5676 13.1968 26.852 14.0555 27.6554 14.8673L27.8233 15.0294L27.8282 15.0343L28.1085 15.295L28.2745 15.4425C29.0647 16.1097 30.0224 16.5089 31.0196 16.629L31.2345 16.6505L32.0733 16.7169L32.1505 17.5558C32.2444 18.5773 32.7144 19.5919 33.5694 20.3897L33.8517 20.6534L34.1231 20.8868C35.5192 22.0029 37.4448 22.308 39.13 21.7521L39.9689 21.4757L40.3468 22.2735C40.5937 22.7944 40.9348 23.2809 41.3927 23.7081L41.6778 23.9728C43.6342 25.7979 46.866 25.7979 48.8224 23.9728L53.8911 19.2442C54.6301 18.5546 55.0801 17.7061 55.2461 16.8429L55.3081 16.5226L55.5461 16.3009L63.3561 9.01373L63.3601 9.0108C65.0481 7.45233 67.7491 7.44729 69.4281 9.01373L69.7121 9.27936L69.7161 9.28229C71.4251 10.8932 71.4311 13.5271 69.7131 15.131L69.7141 15.1319L46.1661 37.1964L46.1642 37.1983C42.1592 40.9342 35.6923 40.9345 31.6876 37.1983L6.58901 13.7823L6.58311 13.7765C4.45741 11.7632 4.47151 8.48546 6.63291 6.49908L6.63581 6.49713ZM44.5831 6.35748C45.6064 6.40367 46.6135 6.79065 47.4063 7.53033L47.6905 7.79498L47.6944 7.79889C48.844 8.88223 49.2221 10.4283 48.8243 11.8126L48.9903 11.4034H49.6651C50.2321 11.4035 50.9161 11.61 51.4771 11.8429C52.0461 12.0794 52.6731 12.4194 53.0961 12.8136L53.3801 13.0792L53.3841 13.0831C55.0941 14.6943 55.0991 17.329 53.3801 18.9327L48.3116 23.6622L48.3077 23.6651C46.6205 25.2236 43.9195 25.2286 42.2403 23.6622L41.9552 23.3966C41.7256 23.1883 41.4064 22.881 41.1202 22.548C40.8633 22.249 40.5027 21.7841 40.3751 21.2843L40.2286 20.7101L40.6612 20.3058L47.7735 13.671C48.0781 13.3868 48.2717 13.0781 48.4581 12.6808C48.2592 13.0294 48.004 13.3571 47.6905 13.6495L40.5011 20.3565L40.4972 20.3605C38.8099 21.9188 36.1089 21.9229 34.4298 20.3565L34.1446 20.0909C33.3475 19.3471 32.9109 18.3681 32.8585 17.3741L32.8194 16.6349L33.5157 16.3819C34.163 16.1465 34.7725 15.7903 35.3038 15.3048L42.4855 8.60358C42.9978 8.12559 43.3691 7.57105 43.6134 6.97662L43.881 6.32526L44.5831 6.35748ZM35.5929 2.17389C37.2196 0.656286 39.8061 0.612673 41.5001 2.02838L41.6612 2.16998L41.6642 2.17389L41.9493 2.43951C43.668 4.04326 43.6621 6.67799 41.9522 8.28912L41.9493 8.29303L34.7589 15.0001C33.0797 16.5665 30.3787 16.5624 28.6915 15.004L28.6876 15.0001L28.4034 14.7345C26.6848 13.1308 26.6899 10.4961 28.3995 8.88483L28.4034 8.88092L35.5929 2.17389Z" fill="white" stroke="white" stroke-width="2"/>
<path d="M6.63581 6.49713C8.69691 4.61713 11.928 4.56559 14.0304 6.36627L14.2296 6.54596L14.2315 6.54694L20.2442 12.2657L20.2569 12.2774L20.2657 12.2862C20.2713 12.2915 20.284 12.3029 20.3019 12.3185C20.3378 12.3499 20.3956 12.3985 20.4728 12.4532C20.631 12.5655 20.8488 12.6911 21.1007 12.7696C21.3469 12.8464 21.6164 12.8758 21.9054 12.8126C22.1911 12.7501 22.5598 12.5837 22.9874 12.173L24.1368 11.0685C24.2989 10.9135 24.4395 10.7803 24.544 10.6817C24.5959 10.6329 24.6412 10.5905 24.6769 10.5577C24.691 10.5447 24.7566 10.4835 24.8155 10.4396L24.8829 10.3937C24.9644 10.3425 25.0871 10.2809 25.2472 10.253C25.4957 10.2098 25.7647 10.2601 25.9903 10.4151C26.1853 10.5492 26.2826 10.7162 26.3263 10.8058C26.3726 10.901 26.3948 10.9846 26.4054 11.0313C26.4388 11.179 26.434 11.3194 26.4337 11.336C26.4327 11.3999 26.4234 11.5731 26.421 11.6446C26.4136 11.8673 26.4139 12.1742 26.4679 12.5333C26.5676 13.1968 26.852 14.0555 27.6554 14.8673L27.8233 15.0294L27.8282 15.0343L28.1085 15.295L28.2745 15.4425C29.0647 16.1097 30.0224 16.5089 31.0196 16.629L31.2345 16.6505L32.0733 16.7169L32.1505 17.5558C32.2444 18.5773 32.7144 19.5919 33.5694 20.3897L33.8517 20.6534L34.1231 20.8868C35.5192 22.0029 37.4448 22.308 39.13 21.7521L39.9689 21.4757L40.3468 22.2735C40.5937 22.7944 40.9348 23.2809 41.3927 23.7081L41.6778 23.9728C43.6342 25.7979 46.3484 25.7979 48.3048 23.9728L53.3731 19.2442C54.1121 18.5546 54.5621 17.7061 54.7291 16.8429L54.7941 16.505L55.0531 16.2794L63.3801 8.99225C65.0681 7.45193 67.7551 7.4534 69.4281 9.01373L69.7121 9.27936L69.7161 9.28229C71.4251 10.8932 71.4311 13.5271 69.7131 15.131L69.7141 15.1319L46.1661 37.1964L46.1642 37.1983C42.1592 40.9342 35.6923 40.9345 31.6876 37.1983L6.58901 13.7823L6.58311 13.7765C4.45741 11.7632 4.47151 8.48546 6.63291 6.49908L6.63581 6.49713ZM44.5831 6.35748C45.6064 6.40367 46.6135 6.79065 47.4063 7.53033L47.6905 7.79498L47.6944 7.79889C48.844 8.88223 49.2221 10.4283 48.8243 11.8126L48.9903 11.4034H49.6651C50.2641 11.4035 50.9691 11.6583 51.5171 11.9142C52.0161 12.1478 52.5421 12.457 52.9361 12.7823L53.0961 12.923L53.1261 12.9513L53.1541 12.9825L53.4171 13.2726C55.0931 14.8845 55.0871 17.3396 53.3801 18.9327L48.3116 23.6622L48.3077 23.6651C46.6205 25.2236 43.9195 25.2286 42.2403 23.6622L41.9552 23.3966C41.7256 23.1883 41.4064 22.881 41.1202 22.548C40.8633 22.249 40.5027 21.7841 40.3751 21.2843L40.2286 20.7101L40.6612 20.3058L47.7735 13.671C48.0781 13.3868 48.2717 13.0781 48.4581 12.6808C48.2592 13.0294 48.004 13.3571 47.6905 13.6495L40.5011 20.3565L40.4972 20.3605C38.8099 21.9188 36.1089 21.9229 34.4298 20.3565L34.1446 20.0909C33.3475 19.3471 32.9109 18.3681 32.8585 17.3741L32.8194 16.6349L33.5157 16.3819C34.163 16.1465 34.7725 15.7903 35.3038 15.3048L42.4855 8.60358C42.9978 8.12559 43.3691 7.57105 43.6134 6.97662L43.881 6.32526L44.5831 6.35748ZM35.5929 2.17389C37.2196 0.656287 39.8061 0.612673 41.5001 2.02838L41.6612 2.16998L41.6642 2.17389L41.9493 2.43951C43.668 4.04326 43.6621 6.67799 41.9522 8.28912L41.9493 8.29303L34.7589 15.0001C33.0797 16.5665 30.3787 16.5624 28.6915 15.004L28.6876 15.0001L28.4034 14.7345C26.6848 13.1308 26.6899 10.4961 28.3995 8.88483L28.4034 8.88092L35.5929 2.17389Z" fill="url(#paint0_linear_8750_1267)" stroke="white" stroke-width="2"/>
<path d="M47.5151 12.5434C48.0525 8.97666 45.4998 7.94344 44.1563 7.87267L43.8204 7.02344H45.0296L47.5151 8.22651L48.5228 10.5618L47.5151 12.5434Z" fill="white"/>
<path d="M52.3521 18.559C54.6361 15.1621 50.6051 12.756 49.1941 13.1098L49.5301 12.1191L52.0831 12.4729L54.1661 14.4544L54.4341 16.719L52.3521 18.559Z" fill="white"/>
</g>
<defs>
<filter id="filter0_d_8750_1267" x="0.000259399" y="0" width="75.9995" height="49" filterUnits="userSpaceOnUse" color-interpolation-filters="sRGB">
<feFlood flood-opacity="0" result="BackgroundImageFix"/>
<feColorMatrix in="SourceAlpha" type="matrix" values="0 0 0 0 0 0 0 0 0 0 0 0 0 0 0 0 0 0 127 0" result="hardAlpha"/>
<feOffset dy="4"/>
<feGaussianBlur stdDeviation="2"/>
<feComposite in2="hardAlpha" operator="out"/>
<feColorMatrix type="matrix" values="0 0 0 0 0 0 0 0 0 0.133333 0 0 0 0 1 0 0 0 0.2 0"/>
<feBlend mode="normal" in2="BackgroundImageFix" result="effect1_dropShadow_8750_1267"/>
<feBlend mode="normal" in="SourceGraphic" in2="effect1_dropShadow_8750_1267" result="shape"/>
</filter>
<linearGradient id="paint0_linear_8750_1267" x1="63.5001" y1="-62.4999" x2="60.5001" y2="49.5001" gradientUnits="userSpaceOnUse">
<stop offset="0.716346" stop-color="#030060"/>
<stop offset="0.788462" stop-color="#0022FF"/>
<stop offset="0.831731" stop-color="#030060"/>
</linearGradient>
</defs>
</svg>
