<svg width="60" height="61" viewBox="0 0 60 61" fill="none" xmlns="http://www.w3.org/2000/svg">
<g clip-path="url(#clip0_9546_2446)">
<path d="M24.6481 24.9583H28.2153V40.3168C28.2153 40.6276 28.0918 40.9257 27.872 41.1455C27.6523 41.3653 27.3542 41.4887 27.0434 41.4887H25.8199C25.5091 41.4887 25.2111 41.3653 24.9913 41.1455C24.7715 40.9257 24.6481 40.6276 24.6481 40.3168V24.9583Z" fill="#0098C6" fill-opacity="0.8"/>
<path d="M24.6481 24.9583H26.4586V40.3168C26.4584 40.5812 26.3688 40.8378 26.2043 41.0448C26.0399 41.2518 25.8102 41.3971 25.5528 41.4571C25.6403 41.4777 25.73 41.4883 25.8199 41.4887H27.0446C27.3554 41.4887 27.6534 41.3653 27.8732 41.1455C28.093 40.9257 28.2164 40.6276 28.2164 40.3168V24.9583H24.6481Z" fill="#595974"/>
<path d="M23.9297 24.9583H26.4328V32.6493H23.9297C22.9864 32.6493 22.0818 32.2745 21.4148 31.6076C20.7478 30.9406 20.373 30.0359 20.373 29.0926V28.5196C20.3724 28.0521 20.464 27.5891 20.6424 27.1571C20.8209 26.725 21.0828 26.3324 21.4131 26.0016C21.7434 25.6709 22.1357 25.4085 22.5675 25.2294C22.9994 25.0504 23.4622 24.9583 23.9297 24.9583Z" fill="#FF008C"/>
<path d="M37.984 36.9571L34.4601 34.7223C32.3224 33.3667 29.8431 32.6473 27.3117 32.6481H26.4269V24.9583H27.3105C29.8419 24.9591 32.3212 24.2397 34.459 22.8841L37.9828 20.6493C38.1446 20.5473 38.3307 20.4905 38.5218 20.4848C38.713 20.4792 38.9021 20.5248 39.0696 20.6171C39.2371 20.7093 39.3769 20.8448 39.4743 21.0094C39.5717 21.1739 39.6232 21.3616 39.6234 21.5528V36.0548C39.6228 36.2457 39.5711 36.433 39.4737 36.5972C39.3763 36.7615 39.2367 36.8966 39.0694 36.9887C38.9021 37.0808 38.7133 37.1264 38.5224 37.1208C38.3315 37.1153 38.1456 37.0588 37.984 36.9571Z" fill="#F2F2F2"/>
<path d="M39.6269 21.5526C39.6269 20.5676 38.8284 19.769 37.8433 19.769C36.8583 19.769 36.0598 20.5676 36.0598 21.5526V36.0546C36.0598 37.0396 36.8583 37.8382 37.8433 37.8382C38.8284 37.8382 39.6269 37.0396 39.6269 36.0546V21.5526Z" fill="#FF008C"/>
<path d="M37.8434 19.769C37.5351 19.7698 37.2322 19.8505 36.9645 20.0034C37.2391 20.1588 37.4676 20.3843 37.6265 20.6569C37.7855 20.9295 37.8692 21.2394 37.8692 21.555V36.0546C37.8692 36.3701 37.7855 36.6801 37.6265 36.9526C37.4676 37.2252 37.2391 37.4508 36.9645 37.6062C37.2357 37.7602 37.5426 37.8403 37.8546 37.8386C38.1665 37.8368 38.4725 37.7532 38.742 37.5962C39.0115 37.4391 39.2351 37.2141 39.3904 36.9436C39.5457 36.673 39.6273 36.3665 39.627 36.0546V21.5526C39.6271 21.3184 39.5811 21.0864 39.4915 20.8699C39.4019 20.6534 39.2706 20.4568 39.1049 20.2911C38.9393 20.1254 38.7426 19.9941 38.5261 19.9045C38.3097 19.8149 38.0777 19.7689 37.8434 19.769Z" fill="#FFA94E"/>
<path d="M30 9.00781C32.0711 9.00781 33.75 7.32888 33.75 5.25781C33.75 3.18674 32.0711 1.50781 30 1.50781C27.9289 1.50781 26.25 3.18674 26.25 5.25781C26.25 7.32888 27.9289 9.00781 30 9.00781Z" fill="#53D86A"/>
<path d="M30 59.75C32.0711 59.75 33.75 58.0711 33.75 56C33.75 53.9289 32.0711 52.25 30 52.25C27.9289 52.25 26.25 53.9289 26.25 56C26.25 58.0711 27.9289 59.75 30 59.75Z" fill="#53D86A"/>
<path d="M8.54413 12.9231C10.6152 12.9231 12.2941 11.2442 12.2941 9.1731C12.2941 7.10203 10.6152 5.4231 8.54413 5.4231C6.47306 5.4231 4.79413 7.10203 4.79413 9.1731C4.79413 11.2442 6.47306 12.9231 8.54413 12.9231Z" fill="#FF008C"/>
<path d="M51.4559 55.8347C53.5269 55.8347 55.2059 54.1558 55.2059 52.0847C55.2059 50.0136 53.5269 48.3347 51.4559 48.3347C49.3848 48.3347 47.7059 50.0136 47.7059 52.0847C47.7059 54.1558 49.3848 55.8347 51.4559 55.8347Z" fill="#FF008C"/>
<path d="M51.4559 12.9231C53.5269 12.9231 55.2059 11.2442 55.2059 9.1731C55.2059 7.10203 53.5269 5.4231 51.4559 5.4231C49.3848 5.4231 47.7059 7.10203 47.7059 9.1731C47.7059 11.2442 49.3848 12.9231 51.4559 12.9231Z" fill="#FFB566"/>
<path d="M8.54413 55.8347C10.6152 55.8347 12.2941 54.1558 12.2941 52.0847C12.2941 50.0136 10.6152 48.3347 8.54413 48.3347C6.47306 48.3347 4.79413 50.0136 4.79413 52.0847C4.79413 54.1558 6.47306 55.8347 8.54413 55.8347Z" fill="#FFB566"/>
<path d="M55.3711 34.3789C57.4422 34.3789 59.1211 32.7 59.1211 30.6289C59.1211 28.5578 57.4422 26.8789 55.3711 26.8789C53.3 26.8789 51.6211 28.5578 51.6211 30.6289C51.6211 32.7 53.3 34.3789 55.3711 34.3789Z" fill="#167FFC"/>
<path d="M4.62891 34.3789C6.69997 34.3789 8.37891 32.7 8.37891 30.6289C8.37891 28.5578 6.69997 26.8789 4.62891 26.8789C2.55784 26.8789 0.878906 28.5578 0.878906 30.6289C0.878906 32.7 2.55784 34.3789 4.62891 34.3789Z" fill="#167FFC"/>
<path d="M8.54414 13.7996C9.45917 13.7998 10.3537 13.5286 11.1146 13.0204C11.8755 12.5122 12.4686 11.7897 12.819 10.9444C13.1693 10.0991 13.2611 9.16893 13.0828 8.27145C12.9045 7.37397 12.4641 6.54952 11.8172 5.90235C11.2791 5.3635 10.6165 4.96571 9.88791 4.74424C9.15934 4.52278 8.3874 4.48446 7.64049 4.63271C6.89358 4.78095 6.19477 5.11117 5.60602 5.59409C5.01726 6.07702 4.55673 6.69773 4.26526 7.40122C3.97378 8.1047 3.86036 8.86923 3.93504 9.62704C4.00973 10.3848 4.27021 11.1125 4.69341 11.7456C5.1166 12.3786 5.68944 12.8975 6.36114 13.2562C7.03284 13.6149 7.78266 13.8024 8.54414 13.802V13.7996ZM6.51446 7.14336C6.78099 6.87659 7.09748 6.66495 7.44585 6.52056C7.79421 6.37617 8.16762 6.30185 8.54473 6.30185C8.92183 6.30185 9.29524 6.37617 9.64361 6.52056C9.99198 6.66495 10.3085 6.87659 10.575 7.14336C10.9769 7.54497 11.2507 8.05676 11.3617 8.61398C11.4726 9.1712 11.4159 9.74882 11.1986 10.2738C10.9812 10.7987 10.6131 11.2474 10.1407 11.5631C9.6683 11.8788 9.1129 12.0473 8.54473 12.0473C7.97656 12.0473 7.42116 11.8788 6.94877 11.5631C6.47638 11.2474 6.10824 10.7987 5.89091 10.2738C5.67357 9.74882 5.61681 9.1712 5.7278 8.61398C5.8388 8.05676 6.11256 7.54497 6.51446 7.14336ZM11.0156 30.6289C11.0156 30.862 11.1082 31.0856 11.2731 31.2504C11.4379 31.4152 11.6614 31.5078 11.8945 31.5078H15.6445C15.8776 31.5078 16.1012 31.4152 16.266 31.2504C16.4308 31.0856 16.5234 30.862 16.5234 30.6289C16.5234 30.3958 16.4308 30.1723 16.266 30.0074C16.1012 29.8426 15.8776 29.75 15.6445 29.75H11.8945C11.6614 29.75 11.4379 29.8426 11.2731 30.0074C11.1082 30.1723 11.0156 30.3958 11.0156 30.6289ZM30 9.88672C30.9155 9.88672 31.8105 9.61524 32.5717 9.10661C33.3329 8.59798 33.9262 7.87504 34.2766 7.02922C34.6269 6.1834 34.7186 5.25268 34.54 4.35476C34.3614 3.45684 33.9205 2.63205 33.2731 1.98468C32.6258 1.33732 31.801 0.896459 30.9031 0.717851C30.0051 0.539244 29.0744 0.630912 28.2286 0.981263C27.3828 1.33161 26.6598 1.92491 26.1512 2.68613C25.6426 3.44735 25.3711 4.3423 25.3711 5.25781C25.3726 6.485 25.8608 7.66148 26.7286 8.52923C27.5963 9.39699 28.7728 9.88517 30 9.88672ZM30 2.38672C30.5679 2.38672 31.1229 2.55511 31.5951 2.87059C32.0672 3.18607 32.4352 3.63447 32.6525 4.15909C32.8699 4.68372 32.9267 5.261 32.8159 5.81794C32.7051 6.37488 32.4317 6.88646 32.0302 7.28798C31.6286 7.68951 31.1171 7.96296 30.5601 8.07374C30.0032 8.18452 29.4259 8.12767 28.9013 7.91036C28.3767 7.69305 27.9283 7.32506 27.6128 6.85291C27.2973 6.38076 27.1289 5.82566 27.1289 5.25781C27.1298 4.49664 27.4326 3.76691 27.9709 3.22867C28.5091 2.69044 29.2388 2.38765 30 2.38672ZM29.1211 12.5234V16.2734C29.1211 16.5065 29.2137 16.7301 29.3785 16.8949C29.5433 17.0597 29.7669 17.1523 30 17.1523C30.2331 17.1523 30.4567 17.0597 30.6215 16.8949C30.7863 16.7301 30.8789 16.5065 30.8789 16.2734V12.5234C30.8789 12.2903 30.7863 12.0668 30.6215 11.902C30.4567 11.7371 30.2331 11.6445 30 11.6445C29.7669 11.6445 29.5433 11.7371 29.3785 11.902C29.2137 12.0668 29.1211 12.2903 29.1211 12.5234ZM42.6141 18.8938C42.8474 18.8936 43.0712 18.8009 43.2363 18.6359L46.5316 15.3406C46.6965 15.1757 46.7892 14.9521 46.7892 14.7189C46.7892 14.4858 46.6965 14.2621 46.5316 14.0973C46.3668 13.9324 46.1431 13.8398 45.91 13.8398C45.6768 13.8398 45.4532 13.9324 45.2883 14.0973L41.993 17.3926C41.8704 17.5157 41.787 17.6722 41.7532 17.8426C41.7194 18.013 41.7369 18.1896 41.8033 18.3501C41.8697 18.5107 41.9821 18.6479 42.1264 18.7447C42.2707 18.8414 42.4404 18.8933 42.6141 18.8938ZM51.4559 13.7996C52.5259 13.7988 53.5625 13.427 54.3892 12.7475C55.2158 12.0681 55.7813 11.1231 55.9894 10.0735C56.1974 9.02388 56.0351 7.93461 55.5301 6.99125C55.0251 6.04789 54.2086 5.3088 53.2198 4.89989C52.231 4.49098 51.131 4.43756 50.1072 4.74871C49.0834 5.05986 48.1992 5.71635 47.6051 6.60633C47.0111 7.49631 46.744 8.56472 46.8493 9.62955C46.9546 10.6944 47.4259 11.6898 48.1828 12.4461C48.6124 12.8761 49.1226 13.2171 49.6843 13.4494C50.246 13.6816 50.848 13.8007 51.4559 13.7996ZM49.425 7.14336C49.8948 6.67289 50.5133 6.37991 51.175 6.31437C51.8366 6.24883 52.5005 6.41478 53.0535 6.78393C53.6066 7.15309 54.0144 7.7026 54.2076 8.33881C54.4009 8.97501 54.3675 9.65854 54.1131 10.2729C53.8588 10.8872 53.3993 11.3944 52.813 11.7078C52.2266 12.0213 51.5497 12.1218 50.8975 11.992C50.2454 11.8623 49.6585 11.5104 49.2367 10.9964C48.815 10.4823 48.5846 9.83795 48.5848 9.17305C48.5837 8.79599 48.6574 8.42246 48.8017 8.07407C48.9459 7.72568 49.1577 7.40935 49.425 7.14336ZM44.3555 29.75C44.1224 29.75 43.8988 29.8426 43.734 30.0074C43.5692 30.1723 43.4766 30.3958 43.4766 30.6289C43.4766 30.862 43.5692 31.0856 43.734 31.2504C43.8988 31.4152 44.1224 31.5078 44.3555 31.5078H48.1055C48.3386 31.5078 48.5621 31.4152 48.727 31.2504C48.8918 31.0856 48.9844 30.862 48.9844 30.6289C48.9844 30.3958 48.8918 30.1723 48.727 30.0074C48.5621 29.8426 48.3386 29.75 48.1055 29.75H44.3555ZM30.8789 48.7344V44.9844C30.8789 44.7513 30.7863 44.5277 30.6215 44.3629C30.4567 44.1981 30.2331 44.1055 30 44.1055C29.7669 44.1055 29.5433 44.1981 29.3785 44.3629C29.2137 44.5277 29.1211 44.7513 29.1211 44.9844V48.7344C29.1211 48.9675 29.2137 49.191 29.3785 49.3559C29.5433 49.5207 29.7669 49.6133 30 49.6133C30.2331 49.6133 30.4567 49.5207 30.6215 49.3559C30.7863 49.191 30.8789 48.9675 30.8789 48.7344ZM43.2422 42.6219C43.0765 42.4562 42.8519 42.3632 42.6176 42.3632C42.3833 42.3632 42.1586 42.4562 41.993 42.6219C41.8273 42.7875 41.7342 43.0122 41.7342 43.2465C41.7342 43.4808 41.8273 43.7054 41.993 43.8711L45.2883 47.1664C45.4532 47.3313 45.6768 47.4239 45.91 47.4239C46.1431 47.4239 46.3668 47.3313 46.5316 47.1664C46.6965 47.0015 46.7892 46.7779 46.7892 46.5447C46.7892 46.3116 46.6965 46.0879 46.5316 45.923L43.2422 42.6219ZM37.8516 18.8902C37.1753 18.8909 36.5245 19.1486 36.0312 19.6113C35.5379 20.0739 35.2389 20.7068 35.1949 21.3816L33.9844 22.141C31.9895 23.4079 29.6749 24.0803 27.3117 24.0793H23.9297C22.7529 24.0805 21.6247 24.5489 20.793 25.3815C19.9613 26.214 19.4941 27.3427 19.4941 28.5195V29.0973C19.4955 30.2453 19.9415 31.3481 20.7386 32.1743C21.5357 33.0005 22.6219 33.4857 23.7691 33.5281V40.325C23.7698 40.8687 23.986 41.39 24.3705 41.7744C24.7549 42.1589 25.2762 42.3752 25.8199 42.3758H27.0445C27.5882 42.3752 28.1095 42.1589 28.494 41.7744C28.8784 41.39 29.0947 40.8687 29.0953 40.325V33.6559C30.8347 33.9067 32.5011 34.5238 33.9844 35.4664L35.182 36.2246C35.2278 36.9134 35.5392 37.5575 36.0507 38.021C36.5622 38.4846 37.2338 38.7314 37.9237 38.7093C38.6136 38.6873 39.2681 38.3982 39.7489 37.9029C40.2298 37.4076 40.4995 36.745 40.5012 36.0547V21.5527C40.5006 20.8476 40.2205 20.1714 39.7223 19.6724C39.2242 19.1734 38.5485 18.8921 37.8434 18.8902H37.8516ZM23.9297 31.7703C23.2198 31.7694 22.5392 31.487 22.0373 30.985C21.5353 30.483 21.2529 29.8025 21.252 29.0926V28.5195C21.2529 27.8096 21.5353 27.1291 22.0373 26.6271C22.5392 26.1251 23.2198 25.8427 23.9297 25.8418H25.5539V31.775L23.9297 31.7703ZM27.3375 40.3168C27.3375 40.3945 27.3066 40.469 27.2517 40.524C27.1968 40.5789 27.1222 40.6098 27.0445 40.6098H25.8199C25.7422 40.6098 25.6677 40.5789 25.6128 40.524C25.5578 40.469 25.527 40.3945 25.527 40.3168V33.5281H27.3375V40.3168ZM35.1809 34.1445L34.9313 33.9863C32.6539 32.5404 30.0117 31.7734 27.3141 31.775V25.8371C30.0117 25.8388 32.6539 25.0717 34.9313 23.6258L35.1809 23.4676V34.1445ZM38.7481 36.0594C38.7481 36.2993 38.6527 36.5294 38.4831 36.6991C38.3134 36.8688 38.0833 36.9641 37.8434 36.9641C37.6034 36.9641 37.3733 36.8688 37.2037 36.6991C37.034 36.5294 36.9387 36.2993 36.9387 36.0594V21.5527C36.9387 21.3128 37.034 21.0827 37.2037 20.913C37.3733 20.7434 37.6034 20.648 37.8434 20.648C38.0833 20.648 38.3134 20.7434 38.4831 20.913C38.6527 21.0827 38.7481 21.3128 38.7481 21.5527V36.0594ZM55.3711 26C54.4556 26 53.5606 26.2715 52.7994 26.7801C52.0382 27.2887 51.4449 28.0117 51.0945 28.8575C50.7442 29.7033 50.6525 30.634 50.8311 31.532C51.0097 32.4299 51.4506 33.2547 52.098 33.902C52.7453 34.5494 53.5701 34.9903 54.468 35.1689C55.366 35.3475 56.2967 35.2558 57.1425 34.9055C57.9883 34.5551 58.7113 33.9618 59.2199 33.2006C59.7285 32.4394 60 31.5444 60 30.6289C59.9985 29.4017 59.5103 28.2252 58.6425 27.3575C57.7748 26.4897 56.5983 26.0016 55.3711 26ZM55.3711 33.5C54.8032 33.5 54.2481 33.3316 53.776 33.0161C53.3039 32.7007 52.9359 32.2523 52.7186 31.7276C52.5012 31.203 52.4444 30.6257 52.5552 30.0688C52.666 29.5118 52.9394 29.0003 53.3409 28.5987C53.7425 28.1972 54.254 27.9238 54.811 27.813C55.3679 27.7022 55.9452 27.7591 56.4698 27.9764C56.9944 28.1937 57.4428 28.5617 57.7583 29.0338C58.0738 29.506 58.2422 30.0611 58.2422 30.6289C58.2413 31.3901 57.9385 32.1198 57.4002 32.6581C56.862 33.1963 56.1323 33.4991 55.3711 33.5ZM9.25781 30.6289C9.25781 29.7134 8.98633 28.8184 8.4777 28.0572C7.96907 27.296 7.24614 26.7027 6.40031 26.3524C5.55449 26.002 4.62377 25.9103 3.72585 26.0889C2.82793 26.2676 2.00314 26.7084 1.35578 27.3558C0.708413 28.0031 0.267553 28.8279 0.0889452 29.7259C-0.0896622 30.6238 0.00200565 31.5545 0.352357 32.4003C0.702708 33.2461 1.29601 33.9691 2.05723 34.4777C2.81845 34.9863 3.7134 35.2578 4.62891 35.2578C5.85609 35.2563 7.03257 34.7681 7.90033 33.9003C8.76808 33.0326 9.25626 31.8561 9.25781 30.6289ZM1.75781 30.6289C1.75781 30.0611 1.9262 29.506 2.24168 29.0338C2.55716 28.5617 3.00556 28.1937 3.53019 27.9764C4.05481 27.7591 4.63209 27.7022 5.18903 27.813C5.74597 27.9238 6.25755 28.1972 6.65908 28.5987C7.06061 29.0003 7.33405 29.5118 7.44484 30.0688C7.55562 30.6257 7.49876 31.203 7.28145 31.7276C7.06415 32.2523 6.69615 32.7007 6.224 33.0161C5.75185 33.3316 5.19676 33.5 4.62891 33.5C3.86773 33.4991 3.138 33.1963 2.59977 32.6581C2.06153 32.1198 1.75874 31.3901 1.75781 30.6289ZM51.4559 47.4559C50.3848 47.4553 49.3468 47.8261 48.5185 48.5052C47.6903 49.1842 47.1231 50.1295 46.9138 51.1798C46.7044 52.2302 46.8657 53.3207 47.3703 54.2654C47.8748 55.2101 48.6913 55.9507 49.6807 56.3608C50.6701 56.771 51.7711 56.8253 52.7961 56.5147C53.8211 56.204 54.7066 55.5475 55.3017 54.657C55.8969 53.7666 56.1649 52.6973 56.06 51.6315C55.9551 50.5656 55.4839 49.5691 54.7266 48.8117C54.298 48.3808 53.7883 48.0391 53.2269 47.8064C52.6655 47.5737 52.0636 47.4545 51.4559 47.4559ZM53.4855 54.1145C53.084 54.516 52.5724 54.7894 52.0155 54.9001C51.4586 55.0109 50.8813 54.954 50.3567 54.7367C49.8321 54.5194 49.3837 54.1514 49.0682 53.6792C48.7528 53.2071 48.5844 52.652 48.5844 52.0842C48.5844 51.5163 48.7528 50.9613 49.0682 50.4891C49.3837 50.017 49.8321 49.649 50.3567 49.4317C50.8813 49.2144 51.4586 49.1575 52.0155 49.2682C52.5724 49.379 53.084 49.6524 53.4855 50.0539C54.0235 50.5927 54.3256 51.3229 54.3256 52.0842C54.3256 52.8455 54.0235 53.5757 53.4855 54.1145ZM30 51.3711C29.0845 51.3711 28.1895 51.6426 27.4283 52.1512C26.6671 52.6598 26.0738 53.3828 25.7234 54.2286C25.3731 55.0744 25.2814 56.0051 25.46 56.9031C25.6386 57.801 26.0795 58.6258 26.7269 59.2731C27.3742 59.9205 28.199 60.3614 29.0969 60.54C29.9949 60.7186 30.9256 60.6269 31.7714 60.2766C32.6172 59.9262 33.3402 59.3329 33.8488 58.5717C34.3574 57.8105 34.6289 56.9155 34.6289 56C34.6274 54.7728 34.1392 53.5963 33.2714 52.7286C32.4037 51.8608 31.2272 51.3726 30 51.3711ZM30 58.8711C29.4322 58.8711 28.8771 58.7027 28.4049 58.3872C27.9328 58.0718 27.5648 57.6233 27.3475 57.0987C27.1301 56.5741 27.0733 55.9968 27.1841 55.4399C27.2949 54.8829 27.5683 54.3714 27.9698 53.9698C28.3714 53.5683 28.8829 53.2949 29.4399 53.1841C29.9968 53.0733 30.5741 53.1302 31.0987 53.3475C31.6233 53.5648 32.0718 53.9328 32.3872 54.4049C32.7027 54.8771 32.8711 55.4322 32.8711 56C32.8702 56.7612 32.5674 57.4909 32.0291 58.0291C31.4909 58.5674 30.7612 58.8702 30 58.8711ZM16.7637 42.6219L13.4684 45.9172C13.3035 46.0821 13.2109 46.3057 13.2109 46.5389C13.2109 46.772 13.3035 46.9957 13.4684 47.1606C13.6332 47.3254 13.8569 47.4181 14.09 47.4181C14.3232 47.4181 14.5468 47.3254 14.7117 47.1606L18.007 43.8711C18.0887 43.7895 18.1534 43.6925 18.1976 43.5859C18.2418 43.4792 18.2645 43.3649 18.2645 43.2494C18.2645 43.134 18.2418 43.0196 18.1976 42.913C18.1534 42.8063 18.0887 42.7094 18.007 42.6277C17.9254 42.5461 17.8285 42.4813 17.7218 42.4372C17.6151 42.393 17.5008 42.3702 17.3854 42.3702C17.2699 42.3702 17.1556 42.393 17.0489 42.4372C16.9422 42.4813 16.8453 42.5461 16.7637 42.6277V42.6219ZM8.54414 47.4559C7.93642 47.4545 7.33446 47.5737 6.77307 47.8064C6.21167 48.0391 5.70197 48.3808 5.27344 48.8117C4.5162 49.569 4.04497 50.5654 3.94003 51.6312C3.83509 52.697 4.10293 53.7661 4.69793 54.6566C5.29293 55.547 6.17827 56.2036 7.20309 56.5144C8.22791 56.8252 9.3288 56.7711 10.3182 56.3613C11.3076 55.9514 12.1243 55.2112 12.6291 54.2667C13.1339 53.3222 13.2955 52.2319 13.0866 51.1816C12.8776 50.1312 12.3109 49.1858 11.4831 48.5065C10.6552 47.8271 9.61741 47.4558 8.54649 47.4559H8.54414ZM10.575 54.1145C10.0365 54.6529 9.30623 54.9554 8.54473 54.9554C7.78323 54.9554 7.05292 54.6529 6.51446 54.1145C5.97599 53.576 5.67349 52.8457 5.67349 52.0842C5.67349 51.3227 5.97599 50.5924 6.51446 50.0539C6.78107 49.7873 7.0976 49.5758 7.44595 49.4315C7.79431 49.2872 8.16767 49.2129 8.54473 49.2129C8.92179 49.2129 9.29515 49.2872 9.6435 49.4315C9.99186 49.5758 10.3084 49.7873 10.575 50.0539C10.8416 50.3205 11.0531 50.6371 11.1974 50.9854C11.3417 51.3338 11.416 51.7071 11.416 52.0842C11.416 52.4612 11.3417 52.8346 11.1974 53.183C11.0531 53.5313 10.8416 53.8478 10.575 54.1145ZM14.7117 14.0973C14.5468 13.9324 14.3232 13.8398 14.09 13.8398C13.8569 13.8398 13.6332 13.9324 13.4684 14.0973C13.3035 14.2621 13.2109 14.4858 13.2109 14.7189C13.2109 14.9521 13.3035 15.1757 13.4684 15.3406L16.7637 18.6359C16.8453 18.7176 16.9422 18.7823 17.0489 18.8265C17.1556 18.8707 17.2699 18.8934 17.3854 18.8934C17.5008 18.8934 17.6151 18.8707 17.7218 18.8265C17.8285 18.7823 17.9254 18.7176 18.007 18.6359C18.0887 18.5543 18.1534 18.4574 18.1976 18.3507C18.2418 18.244 18.2645 18.1297 18.2645 18.0143C18.2645 17.8988 18.2418 17.7845 18.1976 17.6778C18.1534 17.5711 18.0887 17.4742 18.007 17.3926L14.7117 14.0973Z" fill="#272733"/>
</g>
<defs>
<clipPath id="clip0_9546_2446">
<rect width="60" height="60" fill="white" transform="translate(0 0.628906)"/>
</clipPath>
</defs>
</svg>
