<svg width="60" height="61" viewBox="0 0 60 61" fill="none" xmlns="http://www.w3.org/2000/svg">
<g clip-path="url(#clip0_9546_2435)">
<path fill-rule="evenodd" clip-rule="evenodd" d="M30 0.628906C22.0435 0.628906 14.4129 3.78961 8.7868 9.4157C3.16071 15.0418 0 22.6724 0 30.6289C0 38.5854 3.16071 46.216 8.7868 51.8421C14.4129 57.4682 22.0435 60.6289 30 60.6289C37.9565 60.6289 45.5871 57.4682 51.2132 51.8421C56.8393 46.216 60 38.5854 60 30.6289C60 22.6724 56.8393 15.0418 51.2132 9.4157C45.5871 3.78961 37.9565 0.628906 30 0.628906ZM28.7808 15.0097C32.7504 15.0097 35.9808 18.2425 35.9808 22.2097V27.0097C35.9808 29.3089 34.8768 31.3393 33.192 32.6593C34.0056 32.9521 34.7928 33.3001 35.532 33.7273H34.5552C34.1312 33.7283 33.7148 33.8395 33.3466 34.0498C32.9785 34.2602 32.6713 34.5626 32.4552 34.9273C31.398 34.5278 30.2842 34.2986 29.1552 34.2481C23.4 34.0729 18.7008 38.2801 17.9064 43.8481H35.3064L35.1552 44.2273C35.0442 44.5604 35.0069 44.9136 35.0459 45.2625C35.0848 45.6114 35.1991 45.9477 35.3808 46.2481H16.4064C16.0794 46.2362 15.7702 46.0961 15.5457 45.8581C15.3211 45.6201 15.1992 45.3033 15.2064 44.9761C15.3816 39.2113 19.1808 34.4305 24.324 32.6257C23.4724 31.9575 22.7832 31.105 22.3081 30.1324C21.833 29.1598 21.5844 28.0922 21.5808 27.0097V22.2097C21.5808 18.2425 24.8136 15.0097 28.7808 15.0097ZM28.7808 17.4097C26.1024 17.4097 23.9808 19.5313 23.9808 22.2097V27.0097C23.9808 29.6905 26.1024 31.8097 28.7808 31.8097C31.4616 31.8097 33.5808 29.6905 33.5808 27.0097V22.2097C33.5808 19.5313 31.4616 17.4097 28.7808 17.4097ZM42.0888 29.4481C42.3507 29.4375 42.6088 29.513 42.8238 29.6629C43.0387 29.8129 43.1987 30.0291 43.2792 30.2785L44.784 34.9585H49.7208C49.975 34.9587 50.2226 35.0397 50.4278 35.1897C50.633 35.3396 50.7853 35.5509 50.8628 35.7931C50.9402 36.0352 50.9387 36.2956 50.8586 36.5369C50.7784 36.7781 50.6237 36.9877 50.4168 37.1353L46.416 40.0033L47.94 44.6737C48.0179 44.9148 48.0175 45.1743 47.9389 45.4151C47.8602 45.6559 47.7074 45.8657 47.5023 46.0143C47.2971 46.163 47.0502 46.2429 46.7969 46.2427C46.5436 46.2424 46.2968 46.162 46.092 46.0129L42.108 43.1089L38.1144 45.9937C37.9088 46.1426 37.6614 46.2225 37.4075 46.2219C37.1537 46.2213 36.9066 46.1402 36.7018 45.9903C36.497 45.8404 36.3449 45.6294 36.2676 45.3877C36.1902 45.1459 36.1915 44.8859 36.2712 44.6449L37.8192 39.9793L33.8304 37.0921C33.6257 36.9429 33.4735 36.7327 33.3956 36.4916C33.3177 36.2506 33.318 35.9911 33.3966 35.7502C33.4752 35.5094 33.628 35.2996 33.8331 35.1509C34.0382 35.0023 34.2851 34.9223 34.5384 34.9225L39.4728 34.9513L40.9968 30.2785C41.0721 30.0451 41.2172 29.8403 41.4124 29.6919C41.6077 29.5434 41.8437 29.4583 42.0888 29.4481ZM42.132 34.5481L41.484 36.5161C41.4056 36.7583 41.2522 36.9693 41.046 37.1186C40.8397 37.2679 40.5914 37.3477 40.3368 37.3465H38.2584L39.9384 38.5609C40.1442 38.7108 40.2969 38.9223 40.3746 39.1648C40.4523 39.4072 40.4508 39.6681 40.3704 39.9097L39.7176 41.8777L41.4096 40.6537C41.6147 40.5046 41.8617 40.4243 42.1152 40.4243C42.3687 40.4243 42.6157 40.5046 42.8208 40.6537L44.5032 41.8825L43.86 39.9145C43.7822 39.6721 43.7836 39.4112 43.8638 39.1696C43.944 38.928 44.0991 38.7182 44.3064 38.5705L45.9888 37.3609H43.908C43.6538 37.3616 43.406 37.2815 43.2003 37.1323C42.9945 36.983 42.8415 36.7723 42.7632 36.5305L42.132 34.5481Z" fill="#167FFC"/>
</g>
<defs>
<clipPath id="clip0_9546_2435">
<rect width="60" height="60" fill="white" transform="translate(0 0.628906)"/>
</clipPath>
</defs>
</svg>
