<svg width="60" height="61" viewBox="0 0 60 61" fill="none" xmlns="http://www.w3.org/2000/svg">
<path d="M31.9292 25.9559L31.9407 25.9444C33.3292 24.4494 35.0115 23.2575 36.8823 22.4434C38.7532 21.6293 40.772 21.2107 42.8123 21.2136C51.0311 21.2136 57.6923 27.8748 57.6923 36.0936H33.4534" fill="#0098C6" fill-opacity="0.8"/>
<path d="M31.9292 25.9559L31.9407 25.9444C33.3292 24.4494 35.0115 23.2575 36.8823 22.4434C38.7532 21.6293 40.772 21.2107 42.8123 21.2136C51.0311 21.2136 57.6923 27.8748 57.6923 36.0936H33.4534" stroke="#FFA600" stroke-width="2" stroke-miterlimit="10" stroke-linecap="round" stroke-linejoin="round"/>
<path d="M49.3408 13.2844C49.3408 16.889 46.4192 21.2171 42.8146 21.2171C41.8361 21.2171 40.9119 20.8952 40.08 20.3598C39.3681 19.9005 38.7425 19.3197 38.2315 18.644C38.218 18.6306 38.2046 18.6171 38.1911 18.6036C36.9992 17.0759 36.2758 15.0936 36.2758 13.2844C36.2758 11.5501 36.9646 9.88677 38.1909 8.66031C39.4171 7.43386 41.0803 6.74469 42.8146 6.74438C46.4192 6.74438 49.3408 9.67862 49.3408 13.2844ZM44.3481 54.5136H2.30768C2.30768 42.9036 11.7173 33.494 23.3273 33.494C34.9373 33.494 44.3481 42.9036 44.3481 54.5136Z" fill="#0098C6" fill-opacity="0.8" stroke="#FFA600" stroke-width="2" stroke-miterlimit="10" stroke-linecap="round" stroke-linejoin="round"/>
<path d="M32.5708 22.2913C32.5708 24.8471 31.5288 27.6498 29.8627 29.8075L29.805 29.8652C29.0492 30.8309 28.1585 31.6825 27.1742 32.2883C26.0008 33.0452 24.6935 33.4998 23.3319 33.4998C18.2377 33.4998 14.0919 27.3844 14.0919 22.2913C14.0919 17.1983 18.2377 13.0525 23.3308 13.0525C28.4238 13.0525 32.5708 17.1994 32.5708 22.2913Z" fill="#0098C6" fill-opacity="0.8" stroke="#FFA600" stroke-width="2" stroke-miterlimit="10" stroke-linecap="round" stroke-linejoin="round"/>
</svg>
