<svg width="24" height="24" viewBox="0 0 24 24" fill="none" xmlns="http://www.w3.org/2000/svg">
<path d="M21 5.25H3C2.40326 5.25 1.83097 5.48705 1.40901 5.90901C0.987053 6.33097 0.75 6.90326 0.75 7.5V21C0.75 21.5967 0.987053 22.169 1.40901 22.591C1.83097 23.0129 2.40326 23.25 3 23.25H21C21.5967 23.25 22.169 23.0129 22.591 22.591C23.0129 22.169 23.25 21.5967 23.25 21V17.25H20.25C19.4544 17.25 18.6913 16.9339 18.1287 16.3713C17.5661 15.8087 17.25 15.0456 17.25 14.25C17.25 13.4544 17.5661 12.6913 18.1287 12.1287C18.6913 11.5661 19.4544 11.25 20.25 11.25H23.25V7.5C23.25 6.90326 23.0129 6.33097 22.591 5.90901C22.169 5.48705 21.5967 5.25 21 5.25ZM7.5 20.25H4.5C4.30109 20.25 4.11032 20.171 3.96967 20.0303C3.82902 19.8897 3.75 19.6989 3.75 19.5C3.75 19.3011 3.82902 19.1103 3.96967 18.9697C4.11032 18.829 4.30109 18.75 4.5 18.75H7.5C7.69891 18.75 7.88968 18.829 8.03033 18.9697C8.17098 19.1103 8.25 19.3011 8.25 19.5C8.25 19.6989 8.17098 19.8897 8.03033 20.0303C7.88968 20.171 7.69891 20.25 7.5 20.25Z" fill="white"/>
<path d="M18.75 14.2506C18.75 14.6484 18.908 15.03 19.1893 15.3113C19.4706 15.5926 19.8522 15.7506 20.25 15.7506H23.25V12.7506H20.25C19.8522 12.7506 19.4706 12.9086 19.1893 13.1899C18.908 13.4712 18.75 13.8528 18.75 14.2506ZM10.5 0.968094C10.3595 0.828406 10.1694 0.75 9.97124 0.75C9.7731 0.75 9.58301 0.828406 9.44249 0.968094L6.67499 3.75059H13.29L10.5 0.968094ZM17.325 3.75059L14.5425 0.968094C14.402 0.828406 14.2119 0.75 14.0137 0.75C13.8156 0.75 13.6255 0.828406 13.485 0.968094L13.0575 1.39559L15.4125 3.75059H17.325Z" fill="white"/>
<path d="M8.4193 12.49L7.5043 16H6.4693L5.9093 13.69L5.3293 16H4.2943L3.4043 12.49H4.3193L4.8243 15.045L5.4493 12.49H6.3893L6.9893 15.045L7.4993 12.49H8.4193ZM11.8881 12.49V16H11.0331V14.555H9.70309V16H8.84809V12.49H9.70309V13.865H11.0331V12.49H11.8881ZM13.3453 12.49V14.59C13.3453 14.8 13.397 14.9617 13.5003 15.075C13.6036 15.1883 13.7553 15.245 13.9553 15.245C14.1553 15.245 14.3086 15.1883 14.4153 15.075C14.522 14.9617 14.5753 14.8 14.5753 14.59V12.49H15.4303V14.585C15.4303 14.8983 15.3636 15.1633 15.2303 15.38C15.097 15.5967 14.917 15.76 14.6903 15.87C14.467 15.98 14.217 16.035 13.9403 16.035C13.6636 16.035 13.4153 15.9817 13.1953 15.875C12.9786 15.765 12.807 15.6017 12.6803 15.385C12.5536 15.165 12.4903 14.8983 12.4903 14.585V12.49H13.3453Z" fill="#0022FF"/>
</svg>
