<svg width="33" height="33" viewBox="0 0 33 33" fill="none" xmlns="http://www.w3.org/2000/svg">
<path d="M23.7188 8.25C23.7188 7.68046 24.1805 7.21875 24.75 7.21875H24.7638C25.3333 7.21875 25.795 7.68046 25.795 8.25C25.795 8.81954 25.3333 9.28125 24.7638 9.28125H24.75C24.1805 9.28125 23.7188 8.81954 23.7188 8.25Z" fill="white"/>
<path fill-rule="evenodd" clip-rule="evenodd" d="M16.5 9.96875C12.8929 9.96875 9.96875 12.8929 9.96875 16.5C9.96875 20.1072 12.8929 23.0312 16.5 23.0312C20.1072 23.0312 23.0312 20.1072 23.0312 16.5C23.0312 12.8929 20.1072 9.96875 16.5 9.96875ZM12.0312 16.5C12.0312 14.032 14.032 12.0312 16.5 12.0312C18.968 12.0312 20.9688 14.032 20.9688 16.5C20.9688 18.968 18.968 20.9688 16.5 20.9688C14.032 20.9688 12.0312 18.968 12.0312 16.5Z" fill="white"/>
<path fill-rule="evenodd" clip-rule="evenodd" d="M1.71875 8.9375C1.71875 4.9507 4.9507 1.71875 8.9375 1.71875H24.0625C28.0493 1.71875 31.2812 4.9507 31.2812 8.9375V24.0625C31.2812 28.0493 28.0493 31.2812 24.0625 31.2812H8.9375C4.9507 31.2812 1.71875 28.0493 1.71875 24.0625V8.9375ZM8.9375 3.78125C6.08978 3.78125 3.78125 6.08978 3.78125 8.9375V24.0625C3.78125 26.9103 6.08978 29.2187 8.9375 29.2187H24.0625C26.9103 29.2187 29.2187 26.9103 29.2187 24.0625V8.9375C29.2187 6.08978 26.9103 3.78125 24.0625 3.78125H8.9375Z" fill="white"/>
</svg>
