<svg width="33" height="33" viewBox="0 0 33 33" fill="none" xmlns="http://www.w3.org/2000/svg">
<path fill-rule="evenodd" clip-rule="evenodd" d="M6.1875 2.40625C4.09918 2.40625 2.40625 4.09918 2.40625 6.1875C2.40625 8.27582 4.09918 9.96875 6.1875 9.96875C8.27582 9.96875 9.96875 8.27582 9.96875 6.1875C9.96875 4.09918 8.27582 2.40625 6.1875 2.40625ZM4.46875 6.1875C4.46875 5.23826 5.23826 4.46875 6.1875 4.46875C7.13674 4.46875 7.90625 5.23826 7.90625 6.1875C7.90625 7.13674 7.13674 7.90625 6.1875 7.90625C5.23826 7.90625 4.46875 7.13674 4.46875 6.1875Z" fill="white"/>
<path fill-rule="evenodd" clip-rule="evenodd" d="M2.40625 13.75C2.40625 12.8008 3.17575 12.0312 4.125 12.0312H8.25C9.19924 12.0312 9.96875 12.8008 9.96875 13.75V28.875C9.96875 29.8243 9.19924 30.5938 8.25 30.5938H4.125C3.17575 30.5938 2.40625 29.8243 2.40625 28.875V13.75ZM4.46875 14.0938V28.5312H7.90625V14.0938H4.46875Z" fill="white"/>
<path fill-rule="evenodd" clip-rule="evenodd" d="M12.0312 21.3125C12.0312 16.1866 16.1866 12.0312 21.3125 12.0312C26.4384 12.0312 30.5938 16.1866 30.5938 21.3125V29.0625C30.5938 29.9082 29.9082 30.5938 29.0625 30.5938H24.6415C23.7522 30.5938 23.0312 29.8728 23.0312 28.9835V21.3125C23.0312 20.3632 22.2618 19.5938 21.3125 19.5938C20.3632 19.5938 19.5938 20.3632 19.5938 21.3125V28.9835C19.5938 29.8728 18.8728 30.5938 17.9835 30.5938H13.5625C12.7168 30.5938 12.0312 29.9082 12.0312 29.0625V21.3125ZM21.3125 14.0938C17.3257 14.0938 14.0938 17.3257 14.0938 21.3125V28.5312H17.5312V21.3125C17.5312 19.2242 19.2242 17.5312 21.3125 17.5312C23.4009 17.5312 25.0938 19.2242 25.0938 21.3125V28.5312H28.5312V21.3125C28.5312 17.3257 25.2993 14.0938 21.3125 14.0938Z" fill="white"/>
</svg>
