<svg width="33" height="33" viewBox="0 0 33 33" fill="none" xmlns="http://www.w3.org/2000/svg">
<path fill-rule="evenodd" clip-rule="evenodd" d="M14.9527 11.8718C13.7999 11.2954 12.4435 12.1337 12.4435 13.4226V19.5799C12.4435 20.8688 13.7999 21.7072 14.9527 21.1306L21.1101 18.052C22.388 17.4131 22.388 15.5894 21.1101 14.9504L14.9527 11.8718ZM19.5997 16.5013L14.506 19.0481V13.9544L19.5997 16.5013Z" fill="white"/>
<path fill-rule="evenodd" clip-rule="evenodd" d="M22.7855 4.97325C18.6022 4.63522 14.3986 4.63522 10.2154 4.97325L7.30147 5.20872L5.27999 5.53542C3.31474 5.85304 1.77559 7.39665 1.46365 9.3628C0.713452 14.0913 0.713452 18.9086 1.46365 23.6372C1.77559 25.6033 3.31474 27.1469 5.27999 27.4645L7.30147 27.7912L10.2154 28.0268C14.3986 28.3647 18.6022 28.3647 22.7855 28.0268L25.6994 27.7912L27.721 27.4645C29.6861 27.1469 31.2253 25.6033 31.5373 23.6372C32.2875 18.9086 32.2875 14.0913 31.5373 9.3628C31.2253 7.39665 29.6861 5.85304 27.721 5.53542L25.6994 5.20872L22.7855 4.97325ZM10.3815 7.02905C14.4541 6.69995 18.5467 6.69995 22.6194 7.02905L25.4515 7.25791L27.3919 7.5715C28.4776 7.74698 29.3279 8.59976 29.5002 9.68598C30.2165 14.2005 30.2165 18.7996 29.5002 23.314C29.3279 24.4002 28.4776 25.253 27.3919 25.4284L25.4515 25.7421L22.6194 25.9709C18.5467 26.3 14.4541 26.3 10.3815 25.9709L7.54945 25.7421L5.60905 25.4284C4.52334 25.253 3.67301 24.4002 3.50068 23.314C2.78445 18.7996 2.78445 14.2005 3.50068 9.68598C3.67301 8.59976 4.52334 7.74697 5.60905 7.5715L7.54945 7.25791L10.3815 7.02905Z" fill="white"/>
</svg>
