<svg width="40" height="40" viewBox="0 0 40 40" fill="none" xmlns="http://www.w3.org/2000/svg">
<path d="M20.625 18.7499H19.375C19.0435 18.7499 18.7255 18.6182 18.4911 18.3838C18.2567 18.1493 18.125 17.8314 18.125 17.4999C18.125 17.3341 18.0592 17.1751 17.9419 17.0579C17.8247 16.9407 17.6658 16.8749 17.5 16.8749C17.3342 16.8749 17.1753 16.9407 17.0581 17.0579C16.9408 17.1751 16.875 17.3341 16.875 17.4999C16.875 18.1629 17.1384 18.7988 17.6072 19.2676C18.0761 19.7365 18.712 19.9999 19.375 19.9999V20.6249C19.375 20.7906 19.4408 20.9496 19.5581 21.0668C19.6753 21.184 19.8342 21.2499 20 21.2499C20.1658 21.2499 20.3247 21.184 20.4419 21.0668C20.5592 20.9496 20.625 20.7906 20.625 20.6249V19.9999C21.288 19.9999 21.9239 19.7365 22.3928 19.2676C22.8616 18.7988 23.125 18.1629 23.125 17.4999C23.125 16.8368 22.8616 16.201 22.3928 15.7321C21.9239 15.2633 21.288 14.9999 20.625 14.9999H19.375C19.0435 14.9999 18.7255 14.8682 18.4911 14.6338C18.2567 14.3993 18.125 14.0814 18.125 13.7499C18.125 13.4184 18.2567 13.1004 18.4911 12.866C18.7255 12.6316 19.0435 12.4999 19.375 12.4999H20.625C20.9565 12.4999 21.2745 12.6316 21.5089 12.866C21.7433 13.1004 21.875 13.4184 21.875 13.7499C21.875 13.9156 21.9408 14.0746 22.0581 14.1918C22.1753 14.309 22.3342 14.3749 22.5 14.3749C22.6658 14.3749 22.8247 14.309 22.9419 14.1918C23.0592 14.0746 23.125 13.9156 23.125 13.7499C23.123 13.0874 22.859 12.4527 22.3906 11.9843C21.9222 11.5159 21.2874 11.2519 20.625 11.2499V10.6249C20.625 10.4591 20.5592 10.3002 20.4419 10.1829C20.3247 10.0657 20.1658 9.99988 20 9.99988C19.8342 9.99988 19.6753 10.0657 19.5581 10.1829C19.4408 10.3002 19.375 10.4591 19.375 10.6249V11.2499C18.712 11.2499 18.0761 11.5133 17.6072 11.9821C17.1384 12.451 16.875 13.0868 16.875 13.7499C16.875 14.4129 17.1384 15.0488 17.6072 15.5176C18.0761 15.9865 18.712 16.2499 19.375 16.2499H20.625C20.9565 16.2499 21.2745 16.3816 21.5089 16.616C21.7433 16.8504 21.875 17.1684 21.875 17.4999C21.875 17.8314 21.7433 18.1493 21.5089 18.3838C21.2745 18.6182 20.9565 18.7499 20.625 18.7499ZM37.5 15.0636V13.1249C37.5 12.2961 37.1708 11.5012 36.5847 10.9152C35.9987 10.3291 35.2038 9.99988 34.375 9.99988H25.8375C25.0843 9.2098 24.1786 8.58084 23.1752 8.15109C22.1718 7.72134 21.0916 7.49976 20 7.49976C18.9084 7.49976 17.8282 7.72134 16.8248 8.15109C15.8214 8.58084 14.9157 9.2098 14.1625 9.99988H3.125C2.2962 9.99988 1.50134 10.3291 0.915291 10.9152C0.32924 11.5012 0 12.2961 0 13.1249L0 36.8749C0 37.7037 0.32924 38.4985 0.915291 39.0846C1.50134 39.6706 2.2962 39.9999 3.125 39.9999H36.875C37.7038 39.9999 38.4987 39.6706 39.0847 39.0846C39.6708 38.4985 40 37.7037 40 36.8749V18.1249C39.9999 17.4047 39.751 16.7066 39.2954 16.1488C38.8399 15.591 38.2056 15.2077 37.5 15.0636ZM34.375 11.2499C34.8723 11.2499 35.3492 11.4474 35.7008 11.7991C36.0525 12.1507 36.25 12.6276 36.25 13.1249V14.9999H28.1C28.0046 13.6629 27.5701 12.3723 26.8375 11.2499H34.375ZM14.7 11.2499C15.5656 10.1984 16.7245 9.4282 18.0291 9.0372C19.3337 8.6462 20.7252 8.6521 22.0264 9.05414C23.3277 9.45618 24.48 10.2362 25.3367 11.2949C26.1934 12.3537 26.7158 13.6434 26.8375 14.9999C26.8875 15.415 26.8875 15.8347 26.8375 16.2499C26.7666 17.1235 26.52 17.9739 26.1125 18.7499C25.5417 19.8813 24.6681 20.8322 23.5889 21.4965C22.5097 22.1608 21.2673 22.5125 20 22.5125C18.7327 22.5125 17.4903 22.1608 16.4111 21.4965C15.3319 20.8322 14.4583 19.8813 13.8875 18.7499C13.48 17.9739 13.2334 17.1235 13.1625 16.2499C13.1125 15.8347 13.1125 15.415 13.1625 14.9999C13.2788 13.6219 13.8155 12.3129 14.7 11.2499ZM3.125 11.2499H13.1625C12.4299 12.3723 11.9954 13.6629 11.9 14.9999H3.125C2.62772 14.9999 2.15081 14.8023 1.79917 14.4507C1.44754 14.0991 1.25 13.6222 1.25 13.1249C1.25 12.6276 1.44754 12.1507 1.79917 11.7991C2.15081 11.4474 2.62772 11.2499 3.125 11.2499ZM38.75 31.2499H32.5C31.5054 31.2499 30.5516 30.8548 29.8483 30.1515C29.1451 29.4483 28.75 28.4944 28.75 27.4999C28.75 26.5053 29.1451 25.5515 29.8483 24.8482C30.5516 24.145 31.5054 23.7499 32.5 23.7499H38.75V31.2499ZM38.75 22.4999H32.5C31.1739 22.4999 29.9021 23.0267 28.9645 23.9643C28.0268 24.902 27.5 26.1738 27.5 27.4999C27.5 28.826 28.0268 30.0977 28.9645 31.0354C29.9021 31.9731 31.1739 32.4999 32.5 32.4999H38.75V36.8749C38.75 37.3722 38.5525 37.8491 38.2008 38.2007C37.8492 38.5523 37.3723 38.7499 36.875 38.7499H3.125C2.62772 38.7499 2.15081 38.5523 1.79917 38.2007C1.44754 37.8491 1.25 37.3722 1.25 36.8749V15.6249C1.79093 16.0306 2.44884 16.2499 3.125 16.2499H11.9C11.9617 17.1105 12.1644 17.955 12.5 18.7499H6.875C6.70924 18.7499 6.55027 18.8157 6.43306 18.9329C6.31585 19.0501 6.25 19.2091 6.25 19.3749C6.25 19.5406 6.31585 19.6996 6.43306 19.8168C6.55027 19.934 6.70924 19.9999 6.875 19.9999H13.1625C13.8952 21.1492 14.9058 22.0953 16.1009 22.7507C17.296 23.4061 18.637 23.7497 20 23.7497C21.363 23.7497 22.704 23.4061 23.8991 22.7507C25.0942 22.0953 26.1048 21.1492 26.8375 19.9999H33.125C33.2908 19.9999 33.4497 19.934 33.5669 19.8168C33.6842 19.6996 33.75 19.5406 33.75 19.3749C33.75 19.2091 33.6842 19.0501 33.5669 18.9329C33.4497 18.8157 33.2908 18.7499 33.125 18.7499H27.5C27.8356 17.955 28.0383 17.1105 28.1 16.2499H36.875C37.3723 16.2499 37.8492 16.4474 38.2008 16.7991C38.5525 17.1507 38.75 17.6276 38.75 18.1249V22.4999ZM6.25 35.6249C6.25 35.7906 6.31585 35.9496 6.43306 36.0668C6.55027 36.184 6.70924 36.2499 6.875 36.2499H33.125C33.2908 36.2499 33.4497 36.184 33.5669 36.0668C33.6842 35.9496 33.75 35.7906 33.75 35.6249C33.75 35.4591 33.6842 35.3001 33.5669 35.1829C33.4497 35.0657 33.2908 34.9999 33.125 34.9999H6.875C6.70924 34.9999 6.55027 35.0657 6.43306 35.1829C6.31585 35.3001 6.25 35.4591 6.25 35.6249ZM31.2875 27.4999C31.2875 27.8707 31.3975 28.2332 31.6035 28.5416C31.8095 28.8499 32.1024 29.0902 32.445 29.2322C32.7876 29.3741 33.1646 29.4112 33.5283 29.3389C33.892 29.2665 34.2261 29.0879 34.4883 28.8257C34.7505 28.5635 34.9291 28.2294 35.0015 27.8657C35.0738 27.502 35.0367 27.125 34.8948 26.7824C34.7529 26.4397 34.5125 26.1469 34.2042 25.9409C33.8959 25.7348 33.5333 25.6249 33.1625 25.6249C32.6652 25.6249 32.1883 25.8224 31.8367 26.1741C31.485 26.5257 31.2875 27.0026 31.2875 27.4999ZM33.1625 26.8749C33.2861 26.8749 33.407 26.9115 33.5097 26.9802C33.6125 27.0489 33.6926 27.1465 33.7399 27.2607C33.7872 27.3749 33.7996 27.5006 33.7755 27.6218C33.7514 27.7431 33.6918 27.8544 33.6044 27.9418C33.517 28.0292 33.4057 28.0888 33.2844 28.1129C33.1632 28.137 33.0375 28.1246 32.9233 28.0773C32.8091 28.03 32.7115 27.9499 32.6428 27.8471C32.5742 27.7443 32.5375 27.6235 32.5375 27.4999C32.5375 27.3341 32.6033 27.1751 32.7206 27.0579C32.8378 26.9407 32.9967 26.8749 33.1625 26.8749Z" fill="white"/>
</svg>
